# Blender 3.5.0
# www.blender.org
mtllib untitled.mtl
o 3
v 0.000000 -0.000000 -2.000000
v 0.000000 -0.000000 -5.000000
v 1.000000 -0.000000 -5.000000
v 1.000000 -0.000000 -2.000000
v 0.000000 3.300000 -2.000000
v 1.000000 3.300000 -2.000000
v 1.000000 3.299999 -5.000000
v 0.000000 3.299999 -5.000000
v 1.000000 3.000000 -2.000000
v 0.000000 3.000000 -2.000000
v 1.000000 3.000000 -5.000000
v 0.000000 3.000000 -5.000000
v 1.100000 3.000000 -2.000000
v 1.100000 3.000000 -5.000000
v 1.100000 3.299999 -5.000000
v 1.100000 3.300000 -2.000000
v -0.100000 3.000000 -5.000000
v -0.100000 3.000000 -2.000000
v -0.100000 3.300000 -2.000000
v -0.100000 3.299999 -5.000000
vn -0.0000 -1.0000 -0.0000
vn -0.0000 1.0000 -0.0000
vn -0.0000 -0.0000 1.0000
vn 1.0000 -0.0000 -0.0000
vn -0.0000 -0.0000 -1.0000
vn -1.0000 -0.0000 -0.0000
vt 0.000500 0.890400
vt 0.873700 0.669100
vt 0.872400 0.000500
vt 0.289800 0.883700
vt 0.841600 0.668900
vt 0.583000 0.000700
vt 0.292100 0.980200
vt 0.872400 0.339500
vt 0.745100 0.669000
vt 0.002700 0.986900
vt 0.970200 0.668900
vt 0.583000 0.339600
vt 0.874300 0.987400
vt 0.595500 0.893400
vt 0.595500 0.989900
vt 0.970800 0.987200
vt 0.745400 0.987300
vt 0.306100 0.989900
vt 0.306100 0.893400
vt 0.841900 0.987200
vt 0.583100 0.629000
vt 0.970800 0.958300
vt 0.872500 0.289900
vt 0.874300 0.958500
vt 0.872500 0.628900
vt 0.745400 0.958400
vt 0.583100 0.290100
vt 0.841900 0.958300
vt 0.583100 0.638700
vt 0.980400 0.958300
vt 0.872500 0.638500
vt 0.735700 0.958400
vt 0.872600 0.667500
vt 0.735800 0.987300
vt 0.306100 0.999500
vt 0.583200 0.667600
vt 0.595500 0.999500
vt 0.980500 0.987200
vt 0.583100 0.299700
vt 0.851500 0.958300
vt 0.872500 0.299600
vt 0.864600 0.958500
vt 0.872600 0.328500
vt 0.864700 0.987500
vt 0.595500 0.883700
vt 0.583200 0.328700
vt 0.306100 0.883700
vt 0.851500 0.987200
s 0
usemtl wire_087225198
f 1/1/1 2/4/1 3/7/1 4/10/1
f 5/14/2 6/15/2 7/18/2 8/19/2
f 1/2/3 4/11/3 9/22/3 10/24/3
f 4/12/4 3/8/4 11/25/4 9/21/4
f 3/9/5 2/5/5 12/28/5 11/26/5
f 2/6/6 1/3/6 10/23/6 12/27/6
f 10/24/3 9/22/3 6/16/3 5/13/3
f 13/29/4 14/31/4 15/33/4 16/36/4
f 11/26/5 12/28/5 8/20/5 7/17/5
f 17/39/6 18/41/6 19/43/6 20/46/6
f 9/21/1 11/25/1 14/31/1 13/29/1
f 11/26/5 7/17/5 15/34/5 14/32/5
f 7/18/2 6/15/2 16/37/2 15/35/2
f 6/16/3 9/22/3 13/30/3 16/38/3
f 12/27/1 10/23/1 18/41/1 17/39/1
f 10/24/3 5/13/3 19/44/3 18/42/3
f 5/14/2 8/19/2 20/47/2 19/45/2
f 8/20/5 12/28/5 17/40/5 20/48/5
o 6
v 0.000000 0.000000 5.000000
v 1.000000 0.000000 5.000000
v 1.000000 3.000000 5.000000
v 0.000000 3.000000 5.000000
v 1.000000 -0.000000 -1.000000
v 0.000000 -0.000000 -1.000000
v 0.000000 3.000000 -1.000000
v 1.000000 3.000000 -1.000000
v 1.000000 3.300000 5.000000
v 0.000000 3.300000 5.000000
v 0.000000 3.300000 -1.000000
v 1.000000 3.300000 -1.000000
v 1.100000 3.300000 -1.000000
v 1.100000 3.000000 -1.000000
v 1.100000 3.000000 5.000000
v 1.100000 3.300000 5.000000
v -0.100000 3.300000 5.000000
v -0.100000 3.000000 5.000000
v -0.100000 3.000000 -1.000000
v -0.100000 3.300000 -1.000000
vn -0.0000 -0.0000 1.0000
vn -0.0000 -0.0000 -1.0000
vn -0.0000 -1.0000 -0.0000
vn 1.0000 -0.0000 -0.0000
vn -0.0000 1.0000 -0.0000
vn -1.0000 -0.0000 -0.0000
vt 0.888800 0.000500
vt 0.579500 0.760600
vt 0.579300 0.334700
vt 0.985200 0.002000
vt 0.579300 0.664100
vt 0.000500 0.004100
vt 0.980700 0.291400
vt 0.002300 0.293500
vt 0.884300 0.289900
vt 0.579900 0.624100
vt 0.885600 0.334700
vt 0.000500 0.665300
vt 0.579300 0.000500
vt 0.982100 0.335200
vt 0.000700 0.761800
vt 0.000500 0.335800
vt 0.980500 0.624600
vt 0.001100 0.625300
vt 0.884000 0.624100
vt 0.581100 0.289900
vt 0.980300 0.320300
vt 0.579300 0.870500
vt 0.883800 0.318800
vt 0.579300 0.774000
vt 0.980300 0.653600
vt 0.000500 0.774000
vt 0.883800 0.653000
vt 0.000500 0.870500
vt 0.874200 0.653000
vt 0.581300 0.328500
vt 0.000500 0.880100
vt 0.874400 0.624000
vt 0.581100 0.299500
vt 0.990400 0.291500
vt 0.002300 0.303100
vt 0.989900 0.320400
vt 0.002500 0.332100
vt 0.579300 0.880100
vt 0.874200 0.318700
vt 0.579300 0.764400
vt 0.580000 0.662700
vt 0.874600 0.289700
vt 0.579900 0.633700
vt 0.990100 0.624700
vt 0.001100 0.634900
vt 0.989900 0.653600
vt 0.000500 0.764400
vt 0.001200 0.663800
s 0
usemtl wire_087225198
f 21/49/7 22/52/7 23/55/7 24/57/7
f 25/59/8 26/62/8 27/65/8 28/67/8
f 24/57/7 23/55/7 29/69/7 30/71/7
f 28/67/8 27/65/8 31/73/8 32/75/8
f 28/67/8 32/75/8 33/77/8 34/80/8
f 29/69/7 23/55/7 35/82/7 36/84/7
f 24/57/7 30/71/7 37/87/7 38/90/7
f 31/73/8 27/65/8 39/92/8 40/94/8
f 26/63/9 25/60/9 22/53/9 21/50/9
f 25/61/10 28/68/10 23/56/10 22/54/10
f 28/68/9 34/81/9 35/83/9 23/56/9
f 34/81/10 33/78/10 36/85/10 35/83/10
f 33/79/11 32/76/11 29/70/11 36/86/11
f 32/76/11 31/74/11 30/72/11 29/70/11
f 31/74/11 40/95/11 37/88/11 30/72/11
f 40/96/12 39/93/12 38/91/12 37/89/12
f 39/93/9 27/66/9 24/58/9 38/91/9
f 27/66/12 26/64/12 21/51/12 24/58/12
