# 3ds Max Wavefront OBJ Exporter v0.99 - (c)2007 guruware
# File Created: 28.03.2023 19:30:04

mtllib sword.mtl

#
# object Box001
#

v  6.2835 0.0000 5.2018
v  4.8742 0.0000 5.0953
v  3.8675 0.0000 4.7759
v  3.2635 0.0000 4.2434
v  3.0622 0.0000 3.4980
v  3.0622 0.0000 -5.0266
v  3.2635 0.0000 -5.7720
v  3.8675 0.0000 -6.3044
v  4.8742 0.0000 -6.6239
v  6.2835 0.0000 -6.7304
v  11.5670 0.0000 -6.7304
v  12.9763 0.0000 -6.6239
v  13.9830 0.0000 -6.3044
v  14.5870 0.0000 -5.7720
v  14.7883 0.0000 -5.0266
v  14.7883 0.0000 3.4980
v  14.5870 0.0000 4.2434
v  13.9830 0.0000 4.7759
v  12.9763 0.0000 5.0953
v  11.5670 0.0000 5.2018
v  4.2410 448.4874 0.2158
v  4.4423 448.4874 0.9649
v  5.0463 448.4874 1.5001
v  6.0530 448.4874 1.8211
v  7.4623 448.4874 1.9282
v  10.3882 448.4874 1.9282
v  11.7975 448.4874 1.8211
v  12.8041 448.4874 1.5001
v  13.4081 448.4874 0.9649
v  13.6095 448.4874 0.2158
v  13.6095 448.4874 -1.7444
v  13.4081 448.4874 -2.4935
v  12.8041 448.4874 -3.0286
v  11.7975 448.4874 -3.3497
v  10.3882 448.4874 -3.4567
v  7.4623 448.4874 -3.4567
v  6.0530 448.4874 -3.3497
v  5.0463 448.4874 -3.0286
v  4.4423 448.4874 -2.4935
v  4.2410 448.4874 -1.7444
v  11.5670 12.9348 5.2018
v  6.2835 12.9348 5.2018
v  14.7883 12.9348 -5.0266
v  14.7883 12.9348 3.4980
v  6.2835 12.9348 -6.7304
v  11.5670 12.9348 -6.7304
v  3.0622 12.9348 3.4980
v  3.0622 12.9348 -5.0266
v  9.4534 16.6367 3.1052
v  8.3970 16.6367 3.1052
v  12.7279 16.6367 -2.8269
v  12.7279 16.6367 1.2983
v  8.3970 16.6367 -4.6338
v  9.4534 16.6367 -4.6338
v  5.1225 16.6367 1.2983
v  5.1225 16.6367 -2.8269
v  10.8527 68.3165 4.4676
v  7.0043 68.3165 4.4676
v  14.1475 68.7078 -5.3024
v  14.1475 68.7078 3.7738
v  6.9977 68.3165 -5.9962
v  10.8462 68.3165 -5.9962
v  3.7029 68.7078 3.7738
v  3.7029 68.7078 -5.3024
v  11.8333 70.5323 36.7171
v  6.0179 70.5323 36.7171
v  15.0994 70.7702 -37.4423
v  15.0994 70.7702 35.9137
v  6.0171 70.5323 -38.2457
v  11.8325 70.5323 -38.2457
v  2.7511 70.7702 35.9137
v  2.7511 70.7702 -37.4423
v  11.8325 73.6318 36.7171
v  6.0156 73.6318 36.7171
v  15.0538 73.6318 -37.6416
v  15.0538 73.6318 36.1130
v  6.0179 73.6318 -38.2457
v  11.8348 73.6318 -38.2457
v  2.7966 73.6318 36.1130
v  2.7966 73.6318 -37.6416
v  10.3905 73.6318 8.1957
v  7.4623 73.6318 8.1957
v  13.6095 73.6318 -9.1541
v  13.6095 73.6318 7.6256
v  7.4599 73.6318 -9.7243
v  10.3882 73.6318 -9.7243
v  4.2410 73.6318 7.6256
v  4.2410 73.6318 -9.1541
v  10.3882 189.4172 8.9700
v  7.4623 189.4172 8.9700
v  13.6095 189.1791 -8.7927
v  13.6095 189.1791 7.2641
v  7.4623 189.4172 -10.4986
v  10.3882 189.4172 -10.4986
v  4.2410 189.1791 7.2641
v  4.2410 189.1791 -8.7927
v  12.9763 12.9348 5.0953
v  13.9830 12.9348 4.7759
v  4.8742 12.9348 5.0953
v  3.8675 12.9348 4.7759
v  14.5870 12.9348 -5.7720
v  13.9830 12.9348 -6.3044
v  14.5870 12.9348 4.2434
v  4.8742 12.9348 -6.6239
v  3.8675 12.9348 -6.3044
v  12.9763 12.9348 -6.6239
v  3.2635 12.9348 4.2434
v  3.2635 12.9348 -5.7720
v  10.8860 16.6367 2.9923
v  11.9093 16.6367 2.6535
v  6.9644 16.6367 2.9923
v  5.9412 16.6367 2.6535
v  12.5233 16.6367 -3.6174
v  11.9093 16.6367 -4.1821
v  12.5233 16.6367 2.0888
v  6.9644 16.6367 -4.5209
v  5.9412 16.6367 -4.1821
v  10.8860 16.6367 -4.5209
v  5.3272 16.6367 2.0888
v  5.3272 16.6367 -3.6174
v  12.2639 68.3410 4.4242
v  13.2834 68.4143 4.2941
v  5.5902 68.3410 4.4242
v  4.5687 68.4143 4.2941
v  13.9109 68.5366 -5.6059
v  13.2818 68.4143 -5.8227
v  13.9113 68.5366 4.0773
v  5.5865 68.3410 -5.9528
v  4.5670 68.4143 -5.8227
v  12.2602 68.3410 -5.9528
v  3.9396 68.5366 4.0773
v  3.9392 68.5366 -5.6059
v  13.2452 70.5472 36.6669
v  14.2601 70.5918 36.5162
v  4.6058 70.5472 36.6669
v  3.5906 70.5918 36.5162
v  14.8781 70.6661 -37.7938
v  14.2599 70.5918 -38.0448
v  14.8782 70.6661 36.2652
v  4.6053 70.5472 -38.1954
v  3.5904 70.5918 -38.0448
v  13.2447 70.5472 -38.1954
v  2.9723 70.6661 36.2652
v  2.9723 70.6661 -37.7938
v  13.2418 73.6318 36.6793
v  14.2485 73.6318 36.5661
v  4.6073 73.6318 36.6793
v  3.6014 73.6318 36.5661
v  14.8526 73.6318 -37.9059
v  14.2491 73.6318 -38.0946
v  14.8525 73.6318 36.3773
v  4.6086 73.6318 -38.2079
v  3.6019 73.6318 -38.0946
v  13.2431 73.6318 -38.2079
v  2.9978 73.6318 36.3773
v  2.9980 73.6318 -37.9059
v  11.7988 73.6318 8.1600
v  12.8047 73.6318 8.0532
v  6.0530 73.6318 8.1600
v  5.0463 73.6318 8.0532
v  13.4081 73.6318 -9.4036
v  12.8041 73.6318 -9.5817
v  13.4083 73.6318 7.8750
v  6.0516 73.6318 -9.6886
v  5.0457 73.6318 -9.5817
v  11.7975 73.6318 -9.6886
v  4.4423 73.6318 7.8750
v  4.4422 73.6318 -9.4036
v  11.7975 189.4023 8.8634
v  12.8041 189.3577 8.5435
v  6.0530 189.4023 8.8634
v  5.0463 189.3577 8.5435
v  13.4081 189.2833 -9.5390
v  12.8041 189.3577 -10.0721
v  13.4081 189.2833 8.0104
v  6.0530 189.4023 -10.3920
v  5.0463 189.3577 -10.0721
v  11.7975 189.4023 -10.3920
v  4.4423 189.2833 8.0104
v  4.4423 189.2833 -9.5390
# 180 vertices

vn -0.0512 -0.6915 0.7206
vn -0.2498 -0.6651 0.7037
vn -0.5334 -0.6564 0.5335
vn -0.7036 -0.6652 0.2498
vn -0.7206 -0.6915 0.0512
vn -0.7206 -0.6915 -0.0512
vn -0.7036 -0.6652 -0.2498
vn -0.5334 -0.6564 -0.5335
vn -0.2498 -0.6651 -0.7037
vn -0.0512 -0.6915 -0.7206
vn 0.0512 -0.6915 -0.7206
vn 0.2498 -0.6651 -0.7037
vn 0.5334 -0.6564 -0.5335
vn 0.7036 -0.6652 -0.2498
vn 0.7206 -0.6915 -0.0512
vn 0.7206 -0.6915 0.0512
vn 0.7036 -0.6652 0.2498
vn 0.5334 -0.6564 0.5335
vn 0.2498 -0.6651 0.7037
vn 0.0512 -0.6915 0.7206
vn -0.7184 0.6940 0.0476
vn -0.6966 0.6772 0.2369
vn -0.5239 0.6821 0.5101
vn -0.2431 0.6993 0.6723
vn -0.0492 0.7267 0.6852
vn 0.0492 0.7267 0.6852
vn 0.2431 0.6993 0.6723
vn 0.5239 0.6821 0.5101
vn 0.6966 0.6772 0.2369
vn 0.7184 0.6940 0.0476
vn 0.7184 0.6940 -0.0476
vn 0.6966 0.6772 -0.2369
vn 0.5239 0.6821 -0.5101
vn 0.2431 0.6993 -0.6723
vn 0.0492 0.7267 -0.6852
vn -0.0492 0.7267 -0.6852
vn -0.2431 0.6993 -0.6723
vn -0.5239 0.6821 -0.5101
vn -0.6966 0.6772 -0.2369
vn -0.7184 0.6940 -0.0476
vn 0.0641 0.5294 0.8459
vn -0.0641 0.5294 0.8459
vn 0.8956 0.4381 -0.0769
vn 0.8956 0.4381 0.0769
vn -0.0641 0.5294 -0.8459
vn 0.0641 0.5294 -0.8459
vn -0.8956 0.4381 0.0769
vn -0.8956 0.4381 -0.0769
vn 0.0574 0.5069 0.8601
vn -0.0574 0.5069 0.8601
vn 0.9192 0.3915 -0.0429
vn 0.9192 0.3915 0.0429
vn -0.0574 0.5069 -0.8601
vn 0.0574 0.5069 -0.8601
vn -0.9192 0.3915 0.0429
vn -0.9192 0.3915 -0.0429
vn 0.0235 -0.7401 0.6720
vn -0.0234 -0.7401 0.6721
vn 0.8846 -0.4563 -0.0958
vn 0.8847 -0.4562 0.0957
vn -0.0235 -0.7401 -0.6720
vn 0.0234 -0.7401 -0.6721
vn -0.8846 -0.4563 0.0958
vn -0.8847 -0.4562 -0.0957
vn 0.0260 -0.6937 0.7198
vn -0.0259 -0.6937 0.7198
vn 0.8175 -0.5675 -0.0983
vn 0.8175 -0.5674 0.0983
vn -0.0260 -0.6937 -0.7198
vn 0.0259 -0.6937 -0.7198
vn -0.8175 -0.5675 0.0983
vn -0.8175 -0.5674 -0.0983
vn 0.0180 0.7015 0.7125
vn -0.0181 0.7014 0.7125
vn 0.7355 0.6568 -0.1660
vn 0.7355 0.6568 0.1661
vn -0.0180 0.7015 -0.7125
vn 0.0181 0.7014 -0.7125
vn -0.7355 0.6568 0.1660
vn -0.7355 0.6568 -0.1661
vn 0.0170 0.7038 0.7102
vn -0.0170 0.7038 0.7102
vn 0.6413 0.7559 -0.1321
vn 0.6413 0.7558 0.1320
vn -0.0170 0.7038 -0.7102
vn 0.0170 0.7038 -0.7102
vn -0.6413 0.7559 0.1321
vn -0.6413 0.7558 -0.1320
vn 0.0708 0.0376 0.9968
vn -0.0708 0.0376 0.9968
vn 0.9974 0.0041 -0.0726
vn 0.9974 0.0041 0.0726
vn -0.0708 0.0376 -0.9968
vn 0.0708 0.0376 -0.9968
vn -0.9974 0.0041 0.0726
vn -0.9974 0.0041 -0.0726
vn 0.2884 0.5219 0.8028
vn 0.6014 0.5126 0.6129
vn -0.2884 0.5219 0.8028
vn -0.6014 0.5125 0.6129
vn 0.8160 0.4875 -0.3106
vn 0.6014 0.5125 -0.6129
vn 0.8160 0.4875 0.3106
vn -0.2884 0.5219 -0.8028
vn -0.6014 0.5126 -0.6129
vn 0.2884 0.5219 -0.8028
vn -0.8160 0.4875 0.3106
vn -0.8160 0.4875 -0.3106
vn 0.2859 0.5402 0.7915
vn 0.6221 0.5356 0.5711
vn -0.2859 0.5402 0.7915
vn -0.6221 0.5356 0.5711
vn 0.8504 0.4646 -0.2468
vn 0.6221 0.5356 -0.5711
vn 0.8504 0.4646 0.2468
vn -0.2859 0.5402 -0.7915
vn -0.6221 0.5356 -0.5711
vn 0.2859 0.5402 -0.7915
vn -0.8504 0.4646 0.2468
vn -0.8504 0.4646 -0.2468
vn 0.1163 -0.7535 0.6471
vn 0.3065 -0.7645 0.5671
vn -0.1160 -0.7535 0.6472
vn -0.3060 -0.7645 0.5674
vn 0.6206 -0.7063 -0.3407
vn 0.3060 -0.7645 -0.5674
vn 0.6211 -0.7060 0.3403
vn -0.1163 -0.7535 -0.6471
vn -0.3065 -0.7645 -0.5671
vn 0.1160 -0.7535 -0.6472
vn -0.6206 -0.7063 0.3407
vn -0.6211 -0.7060 -0.3403
vn 0.1317 -0.6846 0.7169
vn 0.3482 -0.6767 0.6488
vn -0.1316 -0.6847 0.7169
vn -0.3480 -0.6768 0.6487
vn 0.6442 -0.6443 -0.4122
vn 0.3480 -0.6768 -0.6487
vn 0.6443 -0.6442 0.4121
vn -0.1317 -0.6846 -0.7169
vn -0.3482 -0.6767 -0.6488
vn 0.1316 -0.6847 -0.7169
vn -0.6442 -0.6443 0.4122
vn -0.6443 -0.6442 -0.4121
vn 0.0944 0.6844 0.7230
vn 0.2731 0.6526 0.7068
vn -0.0946 0.6843 0.7230
vn -0.2733 0.6525 0.7068
vn 0.5884 0.6109 -0.5297
vn 0.2733 0.6525 -0.7068
vn 0.5883 0.6109 0.5299
vn -0.0944 0.6844 -0.7230
vn -0.2731 0.6526 -0.7068
vn 0.0946 0.6843 -0.7230
vn -0.5884 0.6109 0.5297
vn -0.5883 0.6109 -0.5299
vn 0.0857 0.7167 0.6921
vn 0.2338 0.7388 0.6321
vn -0.0856 0.7167 0.6921
vn -0.2336 0.7387 0.6322
vn 0.4591 0.7868 -0.4126
vn 0.2336 0.7387 -0.6322
vn 0.4592 0.7868 0.4125
vn -0.0857 0.7167 -0.6921
vn -0.2338 0.7388 -0.6321
vn 0.0856 0.7167 -0.6921
vn -0.4591 0.7868 0.4126
vn -0.4592 0.7868 -0.4125
vn 0.3327 0.0366 0.9423
vn 0.7033 0.0300 0.7103
vn -0.3327 0.0366 0.9423
vn -0.7033 0.0300 0.7103
vn 0.9405 0.0163 -0.3395
vn 0.7033 0.0300 -0.7103
vn 0.9405 0.0163 0.3395
vn -0.3327 0.0366 -0.9423
vn -0.7033 0.0300 -0.7103
vn 0.3327 0.0366 -0.9423
vn -0.9405 0.0163 0.3395
vn -0.9405 0.0163 -0.3395
# 180 vertex normals

vt 0.7253 0.0000 0.0000
vt 0.8626 0.0000 0.0000
vt 1.0000 0.0000 0.0000
vt 1.0000 0.0714 0.0000
vt 1.0000 0.1428 0.0000
vt 1.0000 0.8572 0.0000
vt 1.0000 0.9286 0.0000
vt 1.0000 1.0000 0.0000
vt 0.8626 1.0000 0.0000
vt 0.7253 1.0000 0.0000
vt 0.2747 1.0000 0.0000
vt 0.1374 1.0000 0.0000
vt 0.0000 1.0000 0.0000
vt 0.0000 0.9286 0.0000
vt 0.0000 0.8572 0.0000
vt 0.0000 0.1428 0.0000
vt 0.0000 0.0714 0.0000
vt 0.0000 0.0000 0.0000
vt 0.1374 0.0000 0.0000
vt 0.2747 0.0000 0.0000
vt 0.0000 0.3180 0.0000
vt 0.0000 0.1590 0.0000
vt 0.1719 0.0000 0.0000
vt 0.3438 0.0000 0.0000
vt 0.6562 0.0000 0.0000
vt 0.8281 0.0000 0.0000
vt 1.0000 0.1590 0.0000
vt 1.0000 0.3180 0.0000
vt 1.0000 0.6820 0.0000
vt 1.0000 0.8410 0.0000
vt 0.8281 1.0000 0.0000
vt 0.6562 1.0000 0.0000
vt 0.3438 1.0000 0.0000
vt 0.1719 1.0000 0.0000
vt 0.0000 0.8410 0.0000
vt 0.0000 0.6820 0.0000
vt 0.1428 0.0000 0.0000
vt 0.8572 0.0000 0.0000
vt 0.8572 1.0000 0.0000
vt 0.1428 1.0000 0.0000
vt 0.5759 0.0000 0.0000
vt 0.4241 0.0000 0.0000
vt 1.0000 0.7788 0.0000
vt 1.0000 0.2212 0.0000
vt 0.4241 1.0000 0.0000
vt 0.5759 1.0000 0.0000
vt 0.0000 0.2212 0.0000
vt 0.0000 0.7788 0.0000
vt 0.6863 0.0000 0.0000
vt 0.3137 0.0000 0.0000
vt 1.0000 0.8364 0.0000
vt 1.0000 0.1636 0.0000
vt 0.3137 1.0000 0.0000
vt 0.6863 1.0000 0.0000
vt 0.0000 0.1636 0.0000
vt 0.0000 0.8364 0.0000
vt 0.7372 0.0000 0.0000
vt 0.2628 0.0000 0.0000
vt 1.0000 0.9773 0.0000
vt 1.0000 0.0227 0.0000
vt 0.2628 1.0000 0.0000
vt 0.7372 1.0000 0.0000
vt 0.0000 0.0227 0.0000
vt 0.0000 0.9773 0.0000
vt 0.7371 0.0000 0.0000
vt 0.2629 0.0000 0.0000
vt 0.2629 1.0000 0.0000
vt 0.7371 1.0000 0.0000
vt 0.6560 0.0000 0.0000
vt 0.3440 0.0000 0.0000
vt 1.0000 0.9049 0.0000
vt 1.0000 0.0951 0.0000
vt 0.3440 1.0000 0.0000
vt 0.6560 1.0000 0.0000
vt 0.0000 0.0951 0.0000
vt 0.0000 0.9049 0.0000
vt 1.0000 0.9120 0.0000
vt 1.0000 0.0880 0.0000
vt 0.0000 0.0880 0.0000
vt 0.0000 0.9120 0.0000
vt 0.9286 0.0000 0.0000
vt 0.9286 1.0000 0.0000
vt 0.0714 1.0000 0.0000
vt 0.0714 0.0000 0.0000
vt 0.7880 0.0000 0.0000
vt 0.2120 0.0000 0.0000
vt 1.0000 0.8894 0.0000
vt 1.0000 0.1106 0.0000
vt 0.2120 1.0000 0.0000
vt 0.7880 1.0000 0.0000
vt 0.0000 0.1106 0.0000
vt 0.0000 0.8894 0.0000
vt 0.8432 0.0000 0.0000
vt 0.1568 0.0000 0.0000
vt 1.0000 0.9182 0.0000
vt 1.0000 0.0818 0.0000
vt 0.1568 1.0000 0.0000
vt 0.8432 1.0000 0.0000
vt 0.0000 0.0818 0.0000
vt 0.0000 0.9182 0.0000
vt 0.8686 0.0000 0.0000
vt 0.1314 0.0000 0.0000
vt 1.0000 0.9886 0.0000
vt 1.0000 0.0114 0.0000
vt 0.1314 1.0000 0.0000
vt 0.8686 1.0000 0.0000
vt 0.0000 0.0114 0.0000
vt 0.0000 0.9886 0.0000
vt 0.8685 0.0000 0.0000
vt 0.1315 0.0000 0.0000
vt 0.1315 1.0000 0.0000
vt 0.8685 1.0000 0.0000
vt 0.8280 0.0000 0.0000
vt 0.1720 0.0000 0.0000
vt 1.0000 0.9524 0.0000
vt 1.0000 0.0476 0.0000
vt 0.1720 1.0000 0.0000
vt 0.8280 1.0000 0.0000
vt 0.0000 0.0476 0.0000
vt 0.0000 0.9524 0.0000
vt 1.0000 0.9560 0.0000
vt 1.0000 0.0440 0.0000
vt 0.0000 0.0440 0.0000
vt 0.0000 0.9560 0.0000
# 124 texture coords

o Box001
g Box001
usemtl wire_177148027
s 1
f 1/1/1 2/2/2 3/3/3 4/4/4 5/5/5 6/6/6 7/7/7 8/8/8 9/9/9 10/10/10 11/11/11 12/12/12 13/13/13 14/14/14 15/15/15 16/16/16 17/17/17 18/18/18 19/19/19 20/20/20 
f 21/21/21 22/22/22 23/18/23 24/23/24 25/24/25 26/25/26 27/26/27 28/3/28 29/27/29 30/28/30 31/29/31 32/30/32 33/8/33 34/31/34 35/32/35 36/33/36 37/34/37 38/13/38 39/35/39 40/36/40 
s 2
f 1/20/1 20/1/20 41/10/41 42/11/42 
f 16/37/16 15/38/15 43/39/43 44/40/44 
f 11/20/11 10/1/10 45/10/45 46/11/46 
f 6/37/6 5/38/5 47/39/47 48/40/48 
s 1
f 42/20/42 41/1/41 49/41/49 50/42/50 
f 44/5/44 43/6/43 51/43/51 52/44/52 
f 46/10/46 45/11/45 53/45/53 54/46/54 
f 48/15/48 47/16/47 55/47/55 56/48/56 
s 2
f 50/42/50 49/41/49 57/49/57 58/50/58 
f 52/44/52 51/43/51 59/51/59 60/52/60 
f 54/46/54 53/45/53 61/53/61 62/54/62 
f 56/48/56 55/47/55 63/55/63 64/56/64 
s 1
f 58/50/58 57/49/57 65/57/65 66/58/66 
f 60/52/60 59/51/59 67/59/67 68/60/68 
f 62/54/62 61/53/61 69/61/69 70/62/70 
f 64/56/64 63/55/63 71/63/71 72/64/72 
s 2
f 66/58/66 65/57/65 73/65/73 74/66/74 
s 4
f 68/60/68 67/59/67 75/59/75 76/60/76 
s 2
f 70/62/70 69/61/69 77/67/77 78/68/78 
s 4
f 72/64/72 71/63/71 79/63/79 80/64/80 
s 1
f 74/66/74 73/65/73 81/69/81 82/70/82 
f 76/60/76 75/59/75 83/71/83 84/72/84 
f 78/68/78 77/67/77 85/73/85 86/74/86 
f 80/64/80 79/63/79 87/75/87 88/76/88 
s 2
f 82/70/82 81/69/81 89/25/89 90/24/90 
f 84/72/84 83/71/83 91/77/91 92/78/92 
f 86/74/86 85/73/85 93/33/93 94/32/94 
f 88/76/88 87/75/87 95/79/95 96/80/96 
f 90/24/90 89/25/89 26/25/26 25/24/25 
f 92/78/92 91/77/91 31/29/31 30/28/30 
f 94/32/94 93/33/93 36/33/36 35/32/35 
f 96/80/96 95/79/95 21/21/21 40/36/40 
f 41/10/41 20/1/20 19/2/19 97/9/97 
f 97/9/97 19/2/19 18/3/18 98/8/98 
f 1/20/1 42/11/42 99/12/99 2/19/2 
f 2/19/2 99/12/99 100/13/100 3/18/3 
f 43/39/43 15/38/15 14/81/14 101/82/101 
f 101/82/101 14/81/14 13/3/13 102/8/102 
f 16/37/16 44/40/44 103/83/103 17/84/17 
f 17/84/17 103/83/103 98/13/98 18/18/18 
f 45/10/45 10/1/10 9/2/9 104/9/104 
f 104/9/104 9/2/9 8/3/8 105/8/105 
f 11/20/11 46/11/46 106/12/106 12/19/12 
f 12/19/12 106/12/106 102/13/102 13/18/13 
f 47/39/47 5/38/5 4/81/4 107/82/107 
f 107/82/107 4/81/4 3/3/3 100/8/100 
f 6/37/6 48/40/48 108/83/108 7/84/7 
f 7/84/7 108/83/108 105/13/105 8/18/8 
s 1
f 49/41/49 41/1/41 97/2/97 109/85/109 
f 109/85/109 97/2/97 98/3/98 110/3/110 
f 42/20/42 50/42/50 111/86/111 99/19/99 
f 99/19/99 111/86/111 112/18/112 100/18/100 
f 51/43/51 43/6/43 101/7/101 113/87/113 
f 113/87/113 101/7/101 102/8/102 114/8/114 
f 44/5/44 52/44/52 115/88/115 103/4/103 
f 103/4/103 115/88/115 110/3/110 98/3/98 
f 53/45/53 45/11/45 104/12/104 116/89/116 
f 116/89/116 104/12/104 105/13/105 117/13/117 
f 46/10/46 54/46/54 118/90/118 106/9/106 
f 106/9/106 118/90/118 114/8/114 102/8/102 
f 55/47/55 47/16/47 107/17/107 119/91/119 
f 119/91/119 107/17/107 100/18/100 112/18/112 
f 48/15/48 56/48/56 120/92/120 108/14/108 
f 108/14/108 120/92/120 117/13/117 105/13/105 
s 2
f 57/49/57 49/41/49 109/85/109 121/93/121 
f 121/93/121 109/85/109 110/3/110 122/3/122 
f 50/42/50 58/50/58 123/94/123 111/86/111 
f 111/86/111 123/94/123 124/18/124 112/18/112 
f 59/51/59 51/43/51 113/87/113 125/95/125 
f 125/95/125 113/87/113 114/8/114 126/8/126 
f 52/44/52 60/52/60 127/96/127 115/88/115 
f 115/88/115 127/96/127 122/3/122 110/3/110 
f 61/53/61 53/45/53 116/89/116 128/97/128 
f 128/97/128 116/89/116 117/13/117 129/13/129 
f 54/46/54 62/54/62 130/98/130 118/90/118 
f 118/90/118 130/98/130 126/8/126 114/8/114 
f 63/55/63 55/47/55 119/91/119 131/99/131 
f 131/99/131 119/91/119 112/18/112 124/18/124 
f 56/48/56 64/56/64 132/100/132 120/92/120 
f 120/92/120 132/100/132 129/13/129 117/13/117 
s 1
f 65/57/65 57/49/57 121/93/121 133/101/133 
f 133/101/133 121/93/121 122/3/122 134/3/134 
f 58/50/58 66/58/66 135/102/135 123/94/123 
f 123/94/123 135/102/135 136/18/136 124/18/124 
f 67/59/67 59/51/59 125/95/125 137/103/137 
f 137/103/137 125/95/125 126/8/126 138/8/138 
f 60/52/60 68/60/68 139/104/139 127/96/127 
f 127/96/127 139/104/139 134/3/134 122/3/122 
f 69/61/69 61/53/61 128/97/128 140/105/140 
f 140/105/140 128/97/128 129/13/129 141/13/141 
f 62/54/62 70/62/70 142/106/142 130/98/130 
f 130/98/130 142/106/142 138/8/138 126/8/126 
f 71/63/71 63/55/63 131/99/131 143/107/143 
f 143/107/143 131/99/131 124/18/124 136/18/136 
f 64/56/64 72/64/72 144/108/144 132/100/132 
f 132/100/132 144/108/144 141/13/141 129/13/129 
s 2
f 73/65/73 65/57/65 133/101/133 145/109/145 
f 145/109/145 133/101/133 134/3/134 146/3/146 
f 66/58/66 74/66/74 147/110/147 135/102/135 
f 135/102/135 147/110/147 148/18/148 136/18/136 
s 4
f 75/59/75 67/59/67 137/103/137 149/103/149 
s 2
f 149/103/149 137/103/137 138/8/138 150/8/150 
s 4
f 68/60/68 76/60/76 151/104/151 139/104/139 
s 2
f 139/104/139 151/104/151 146/3/146 134/3/134 
f 77/67/77 69/61/69 140/105/140 152/111/152 
f 152/111/152 140/105/140 141/13/141 153/13/153 
f 70/62/70 78/68/78 154/112/154 142/106/142 
f 142/106/142 154/112/154 150/8/150 138/8/138 
s 4
f 79/63/79 71/63/71 143/107/143 155/107/155 
s 2
f 155/107/155 143/107/143 136/18/136 148/18/148 
s 4
f 72/64/72 80/64/80 156/108/156 144/108/144 
s 2
f 144/108/144 156/108/156 153/13/153 141/13/141 
s 1
f 81/69/81 73/65/73 145/109/145 157/113/157 
f 157/113/157 145/109/145 146/3/146 158/3/158 
f 74/66/74 82/70/82 159/114/159 147/110/147 
f 147/110/147 159/114/159 160/18/160 148/18/148 
f 83/71/83 75/59/75 149/103/149 161/115/161 
f 161/115/161 149/103/149 150/8/150 162/8/162 
f 76/60/76 84/72/84 163/116/163 151/104/151 
f 151/104/151 163/116/163 158/3/158 146/3/146 
f 85/73/85 77/67/77 152/111/152 164/117/164 
f 164/117/164 152/111/152 153/13/153 165/13/165 
f 78/68/78 86/74/86 166/118/166 154/112/154 
f 154/112/154 166/118/166 162/8/162 150/8/150 
f 87/75/87 79/63/79 155/107/155 167/119/167 
f 167/119/167 155/107/155 148/18/148 160/18/160 
f 80/64/80 88/76/88 168/120/168 156/108/156 
f 156/108/156 168/120/168 165/13/165 153/13/153 
s 2
f 89/25/89 81/69/81 157/113/157 169/26/169 
f 169/26/169 157/113/157 158/3/158 170/3/170 
f 82/70/82 90/24/90 171/23/171 159/114/159 
f 159/114/159 171/23/171 172/18/172 160/18/160 
f 91/77/91 83/71/83 161/115/161 173/121/173 
f 173/121/173 161/115/161 162/8/162 174/8/174 
f 84/72/84 92/78/92 175/122/175 163/116/163 
f 163/116/163 175/122/175 170/3/170 158/3/158 
f 93/33/93 85/73/85 164/117/164 176/34/176 
f 176/34/176 164/117/164 165/13/165 177/13/177 
f 86/74/86 94/32/94 178/31/178 166/118/166 
f 166/118/166 178/31/178 174/8/174 162/8/162 
f 95/79/95 87/75/87 167/119/167 179/123/179 
f 179/123/179 167/119/167 160/18/160 172/18/172 
f 88/76/88 96/80/96 180/124/180 168/120/168 
f 168/120/168 180/124/180 177/13/177 165/13/165 
f 26/25/26 89/25/89 169/26/169 27/26/27 
f 27/26/27 169/26/169 170/3/170 28/3/28 
f 90/24/90 25/24/25 24/23/24 171/23/171 
f 171/23/171 24/23/24 23/18/23 172/18/172 
f 31/29/31 91/77/91 173/121/173 32/30/32 
f 32/30/32 173/121/173 174/8/174 33/8/33 
f 92/78/92 30/28/30 29/27/29 175/122/175 
f 175/122/175 29/27/29 28/3/28 170/3/170 
f 36/33/36 93/33/93 176/34/176 37/34/37 
f 37/34/37 176/34/176 177/13/177 38/13/38 
f 94/32/94 35/32/35 34/31/34 178/31/178 
f 178/31/178 34/31/34 33/8/33 174/8/174 
f 21/21/21 95/79/95 179/123/179 22/22/22 
f 22/22/22 179/123/179 172/18/172 23/18/23 
f 96/80/96 40/36/40 39/35/39 180/124/180 
f 180/124/180 39/35/39 38/13/38 177/13/177 
# 162 polygons

