# 3ds Max Wavefront OBJ Exporter v0.99 - (c)2007 guruware
# File Created: 25.04.2023 18:48:40

mtllib 36wall_22.mtl

#
# object 3
#

v  1.0000 0.0000 -5.0000
v  1.0000 0.0000 -2.0000
v  0.0000 0.0000 -2.0000
v  0.0000 0.0000 -5.0000
v  1.0000 3.3000 -5.0000
v  0.0000 3.3000 -5.0000
v  0.0000 3.3000 -2.0000
v  1.0000 3.3000 -2.0000
v  1.0000 3.0000 -2.0000
v  0.0000 3.0000 -2.0000
v  1.0000 3.0000 -5.0000
v  0.0000 3.0000 -5.0000
v  1.1000 3.3000 -5.0000
v  1.1000 3.3000 -2.0000
v  1.1000 3.0000 -2.0000
v  1.1000 3.0000 -5.0000
v  -0.1000 3.3000 -2.0000
v  -0.1000 3.3000 -5.0000
v  -0.1000 3.0000 -5.0000
v  -0.1000 3.0000 -2.0000
# 20 vertices

vn 0.0000 -1.0000 -0.0000
vn 0.0000 -1.0000 -0.0000
vn 0.0000 -1.0000 -0.0000
vn 0.0000 -1.0000 -0.0000
vn 0.0000 1.0000 -0.0000
vn 0.0000 1.0000 -0.0000
vn 0.0000 1.0000 -0.0000
vn 0.0000 1.0000 -0.0000
vn 0.0000 0.0000 1.0000
vn 0.0000 0.0000 1.0000
vn 0.0000 0.0000 1.0000
vn 0.0000 0.0000 1.0000
vn 1.0000 0.0000 -0.0000
vn 1.0000 0.0000 -0.0000
vn 1.0000 0.0000 -0.0000
vn 1.0000 0.0000 -0.0000
vn 0.0000 0.0000 -1.0000
vn 0.0000 0.0000 -1.0000
vn 0.0000 0.0000 -1.0000
vn 0.0000 0.0000 -1.0000
vn -1.0000 0.0000 -0.0000
vn -1.0000 0.0000 -0.0000
vn -1.0000 0.0000 -0.0000
vn -1.0000 0.0000 -0.0000
vn 0.0000 0.0000 1.0000
vn 0.0000 0.0000 1.0000
vn 0.0000 0.0000 1.0000
vn 0.0000 0.0000 1.0000
vn 1.0000 0.0000 -0.0000
vn 1.0000 0.0000 -0.0000
vn 1.0000 0.0000 -0.0000
vn 1.0000 0.0000 -0.0000
vn 0.0000 0.0000 -1.0000
vn 0.0000 0.0000 -1.0000
vn 0.0000 0.0000 -1.0000
vn 0.0000 0.0000 -1.0000
vn -1.0000 0.0000 -0.0000
vn -1.0000 0.0000 -0.0000
vn -1.0000 0.0000 -0.0000
vn -1.0000 0.0000 -0.0000
vn 0.0000 -1.0000 -0.0000
vn 0.0000 -1.0000 -0.0000
vn 0.0000 -1.0000 -0.0000
vn 0.0000 -1.0000 -0.0000
vn 0.0000 0.0000 -1.0000
vn 0.0000 0.0000 -1.0000
vn 0.0000 0.0000 -1.0000
vn 0.0000 0.0000 -1.0000
vn 0.0000 1.0000 -0.0000
vn 0.0000 1.0000 -0.0000
vn 0.0000 1.0000 -0.0000
vn 0.0000 1.0000 -0.0000
vn 0.0000 0.0000 1.0000
vn 0.0000 0.0000 1.0000
vn 0.0000 0.0000 1.0000
vn 0.0000 0.0000 1.0000
vn 0.0000 -1.0000 -0.0000
vn 0.0000 -1.0000 -0.0000
vn 0.0000 -1.0000 -0.0000
vn 0.0000 -1.0000 -0.0000
vn 0.0000 0.0000 1.0000
vn 0.0000 0.0000 1.0000
vn 0.0000 0.0000 1.0000
vn 0.0000 0.0000 1.0000
vn 0.0000 1.0000 -0.0000
vn 0.0000 1.0000 -0.0000
vn 0.0000 1.0000 -0.0000
vn 0.0000 1.0000 -0.0000
vn 0.0000 0.0000 -1.0000
vn 0.0000 0.0000 -1.0000
vn 0.0000 0.0000 -1.0000
vn 0.0000 0.0000 -1.0000
# 72 vertex normals

vt 0.2921 0.9802 0.0000
vt 0.0027 0.9869 0.0000
vt 0.0005 0.8904 0.0000
vt 0.2898 0.8837 0.0000
vt 0.3061 0.9899 0.0000
vt 0.3061 0.8934 0.0000
vt 0.5955 0.8934 0.0000
vt 0.5955 0.9899 0.0000
vt 0.9708 0.9583 0.0000
vt 0.8743 0.9585 0.0000
vt 0.8737 0.6691 0.0000
vt 0.9702 0.6689 0.0000
vt 0.8725 0.6289 0.0000
vt 0.5831 0.6290 0.0000
vt 0.5830 0.3396 0.0000
vt 0.8724 0.3395 0.0000
vt 0.8419 0.9583 0.0000
vt 0.7454 0.9584 0.0000
vt 0.7451 0.6690 0.0000
vt 0.8416 0.6689 0.0000
vt 0.8725 0.2899 0.0000
vt 0.5831 0.2901 0.0000
vt 0.5830 0.0007 0.0000
vt 0.8724 0.0005 0.0000
vt 0.9708 0.9872 0.0000
vt 0.8743 0.9874 0.0000
vt 0.8726 0.6675 0.0000
vt 0.5832 0.6676 0.0000
vt 0.5831 0.6387 0.0000
vt 0.8725 0.6385 0.0000
vt 0.8419 0.9872 0.0000
vt 0.7454 0.9873 0.0000
vt 0.8726 0.3285 0.0000
vt 0.5832 0.3287 0.0000
vt 0.5831 0.2997 0.0000
vt 0.8725 0.2996 0.0000
vt 0.7358 0.9873 0.0000
vt 0.7357 0.9584 0.0000
vt 0.5955 0.9995 0.0000
vt 0.3061 0.9995 0.0000
vt 0.9804 0.9583 0.0000
vt 0.9805 0.9872 0.0000
vt 0.8647 0.9875 0.0000
vt 0.8646 0.9585 0.0000
vt 0.3061 0.8837 0.0000
vt 0.5955 0.8837 0.0000
vt 0.8515 0.9583 0.0000
vt 0.8515 0.9872 0.0000
# 48 texture coords

o 3
g 3
usemtl wire_087225198
f 1/1/1 2/2/2 3/3/3 4/4/4 
f 5/5/5 6/6/6 7/7/7 8/8/8 
f 9/9/9 10/10/10 3/11/11 2/12/12 
f 11/13/13 9/14/14 2/15/15 1/16/16 
f 12/17/17 11/18/18 1/19/19 4/20/20 
f 10/21/21 12/22/22 4/23/23 3/24/24 
f 8/25/25 7/26/26 10/10/27 9/9/28 
f 13/27/29 14/28/30 15/29/31 16/30/32 
f 6/31/33 5/32/34 11/18/35 12/17/36 
f 17/33/37 18/34/38 19/35/39 20/36/40 
f 16/30/41 15/29/42 9/14/43 11/13/44 
f 13/37/45 16/38/46 11/18/47 5/32/48 
f 14/39/49 13/40/50 5/5/51 8/8/52 
f 15/41/53 14/42/54 8/25/55 9/9/56 
f 20/36/57 19/35/58 12/22/59 10/21/60 
f 17/43/61 20/44/62 10/10/63 7/26/64 
f 18/45/65 17/46/66 7/7/67 6/6/68 
f 19/47/69 18/48/70 6/31/71 12/17/72 
# 18 polygons

#
# object 6
#

v  1.0000 3.0000 5.0000
v  0.0000 3.0000 5.0000
v  0.0000 0.0000 5.0000
v  1.0000 0.0000 5.0000
v  0.0000 3.0000 -1.0000
v  1.0000 3.0000 -1.0000
v  1.0000 0.0000 -1.0000
v  0.0000 0.0000 -1.0000
v  1.0000 3.3000 5.0000
v  0.0000 3.3000 5.0000
v  0.0000 3.3000 -1.0000
v  1.0000 3.3000 -1.0000
v  1.1000 3.3000 -1.0000
v  1.1000 3.0000 -1.0000
v  1.1000 3.0000 5.0000
v  1.1000 3.3000 5.0000
v  -0.1000 3.3000 5.0000
v  -0.1000 3.0000 5.0000
v  -0.1000 3.0000 -1.0000
v  -0.1000 3.3000 -1.0000
# 20 vertices

vn 0.0000 0.0000 1.0000
vn 0.0000 0.0000 1.0000
vn 0.0000 0.0000 1.0000
vn 0.0000 0.0000 1.0000
vn 0.0000 0.0000 -1.0000
vn 0.0000 0.0000 -1.0000
vn 0.0000 0.0000 -1.0000
vn 0.0000 0.0000 -1.0000
vn 0.0000 0.0000 1.0000
vn 0.0000 0.0000 1.0000
vn 0.0000 0.0000 1.0000
vn 0.0000 0.0000 1.0000
vn 0.0000 0.0000 -1.0000
vn 0.0000 0.0000 -1.0000
vn 0.0000 0.0000 -1.0000
vn 0.0000 0.0000 -1.0000
vn 0.0000 0.0000 -1.0000
vn 0.0000 0.0000 -1.0000
vn 0.0000 0.0000 -1.0000
vn 0.0000 0.0000 -1.0000
vn 0.0000 0.0000 1.0000
vn 0.0000 0.0000 1.0000
vn 0.0000 0.0000 1.0000
vn 0.0000 0.0000 1.0000
vn 0.0000 0.0000 1.0000
vn 0.0000 0.0000 1.0000
vn 0.0000 0.0000 1.0000
vn 0.0000 0.0000 1.0000
vn 0.0000 0.0000 -1.0000
vn 0.0000 0.0000 -1.0000
vn 0.0000 0.0000 -1.0000
vn 0.0000 0.0000 -1.0000
vn 0.0000 -1.0000 -0.0000
vn 0.0000 -1.0000 -0.0000
vn 0.0000 -1.0000 -0.0000
vn 0.0000 -1.0000 -0.0000
vn 1.0000 0.0000 -0.0000
vn 1.0000 0.0000 -0.0000
vn 1.0000 0.0000 -0.0000
vn 1.0000 0.0000 -0.0000
vn 0.0000 -1.0000 -0.0000
vn 0.0000 -1.0000 -0.0000
vn 0.0000 -1.0000 -0.0000
vn 0.0000 -1.0000 -0.0000
vn 1.0000 0.0000 -0.0000
vn 1.0000 0.0000 -0.0000
vn 1.0000 0.0000 -0.0000
vn 1.0000 0.0000 -0.0000
vn 0.0000 1.0000 -0.0000
vn 0.0000 1.0000 -0.0000
vn 0.0000 1.0000 -0.0000
vn 0.0000 1.0000 -0.0000
vn 0.0000 1.0000 -0.0000
vn 0.0000 1.0000 -0.0000
vn 0.0000 1.0000 -0.0000
vn 0.0000 1.0000 -0.0000
vn 0.0000 1.0000 -0.0000
vn 0.0000 1.0000 -0.0000
vn 0.0000 1.0000 -0.0000
vn 0.0000 1.0000 -0.0000
vn -1.0000 0.0000 -0.0000
vn -1.0000 0.0000 -0.0000
vn -1.0000 0.0000 -0.0000
vn -1.0000 0.0000 -0.0000
vn 0.0000 -1.0000 -0.0000
vn 0.0000 -1.0000 -0.0000
vn 0.0000 -1.0000 -0.0000
vn 0.0000 -1.0000 -0.0000
vn -1.0000 0.0000 -0.0000
vn -1.0000 0.0000 -0.0000
vn -1.0000 0.0000 -0.0000
vn -1.0000 0.0000 -0.0000
# 72 vertex normals

vt 0.9807 0.2914 0.0000
vt 0.8843 0.2899 0.0000
vt 0.8888 0.0005 0.0000
vt 0.9852 0.0020 0.0000
vt 0.9805 0.6246 0.0000
vt 0.8840 0.6241 0.0000
vt 0.8856 0.3347 0.0000
vt 0.9821 0.3352 0.0000
vt 0.9803 0.3203 0.0000
vt 0.8838 0.3188 0.0000
vt 0.9803 0.6536 0.0000
vt 0.8838 0.6530 0.0000
vt 0.8742 0.6530 0.0000
vt 0.8744 0.6240 0.0000
vt 0.9904 0.2915 0.0000
vt 0.9899 0.3204 0.0000
vt 0.8742 0.3187 0.0000
vt 0.8746 0.2897 0.0000
vt 0.9901 0.6247 0.0000
vt 0.9899 0.6536 0.0000
vt 0.5795 0.7606 0.0000
vt 0.0007 0.7618 0.0000
vt 0.0005 0.6653 0.0000
vt 0.5793 0.6641 0.0000
vt 0.0005 0.0041 0.0000
vt 0.5793 0.0005 0.0000
vt 0.5811 0.2899 0.0000
vt 0.0023 0.2935 0.0000
vt 0.5811 0.2995 0.0000
vt 0.0023 0.3031 0.0000
vt 0.5813 0.3285 0.0000
vt 0.0025 0.3321 0.0000
vt 0.5793 0.8801 0.0000
vt 0.0005 0.8801 0.0000
vt 0.0005 0.8705 0.0000
vt 0.5793 0.8705 0.0000
vt 0.5793 0.7740 0.0000
vt 0.0005 0.7740 0.0000
vt 0.0005 0.7644 0.0000
vt 0.5793 0.7644 0.0000
vt 0.5800 0.6627 0.0000
vt 0.0012 0.6638 0.0000
vt 0.0011 0.6349 0.0000
vt 0.5799 0.6337 0.0000
vt 0.0011 0.6253 0.0000
vt 0.5799 0.6241 0.0000
vt 0.0005 0.3358 0.0000
vt 0.5793 0.3347 0.0000
# 48 texture coords

o 6
g 6
usemtl wire_087225198
f 21/49/73 22/50/74 23/51/75 24/52/76 
f 25/53/77 26/54/78 27/55/79 28/56/80 
f 29/57/81 30/58/82 22/50/83 21/49/84 
f 31/59/85 32/60/86 26/54/87 25/53/88 
f 33/61/89 34/62/90 26/54/91 32/60/92 
f 35/63/93 36/64/94 29/57/95 21/49/96 
f 37/65/97 38/66/98 22/50/99 30/58/100 
f 39/67/101 40/68/102 31/59/103 25/53/104 
f 23/69/105 28/70/106 27/71/107 24/72/108 
f 24/73/109 27/74/110 26/75/111 21/76/112 
f 21/76/113 26/75/114 34/77/115 35/78/116 
f 35/78/117 34/77/118 33/79/119 36/80/120 
f 36/81/121 33/82/122 32/83/123 29/84/124 
f 30/85/125 29/84/126 32/83/127 31/86/128 
f 30/85/129 31/86/130 40/87/131 37/88/132 
f 37/89/133 40/90/134 39/91/135 38/92/136 
f 38/92/137 39/91/138 25/93/139 22/94/140 
f 22/94/141 25/93/142 28/95/143 23/96/144 
# 18 polygons

