# 3ds Max Wavefront OBJ Exporter v0.99 - (c)2007 guruware
# File Created: 06.04.2023 22:48:33

mtllib Iwall_low.mtl

#
# object Box001
#

v  0.0000 0.0000 1.0000
v  0.0000 0.0000 -2.0000
v  1.0000 0.0000 -2.0000
v  1.0000 0.0000 1.0000
v  0.0000 3.3000 1.0000
v  1.0000 3.3000 1.0000
v  1.0000 3.3000 -2.0000
v  0.0000 3.3000 -2.0000
v  1.0000 3.0000 1.0000
v  0.0000 3.0000 1.0000
v  1.0000 3.0000 -2.0000
v  0.0000 3.0000 -2.0000
v  1.1000 3.0000 1.0000
v  1.1000 3.0000 -2.0000
v  1.1000 3.3000 -2.0000
v  1.1000 3.3000 1.0000
v  -0.1000 3.0000 -2.0000
v  -0.1000 3.0000 1.0000
v  -0.1000 3.3000 1.0000
v  -0.1000 3.3000 -2.0000
# 20 vertices

vn -0.5774 -0.5774 0.5774
vn -0.5774 -0.5774 -0.5774
vn 0.5774 -0.5774 -0.5774
vn 0.5774 -0.5774 0.5774
vn 0.0000 0.7071 0.7071
vn 0.0000 0.7071 -0.7071
vn 0.3015 -0.3015 0.9045
vn -0.3015 -0.3015 0.9045
vn 0.3015 -0.3015 -0.9045
vn -0.3015 -0.3015 -0.9045
vn 0.5774 0.5774 -0.5774
vn 0.5774 0.5774 0.5774
vn -0.5774 0.5774 0.5774
vn -0.5774 0.5774 -0.5774
# 14 vertex normals

vt 0.4815 0.5472 0.0000
vt 0.9275 0.5369 0.0000
vt 0.9310 0.6856 0.0000
vt 0.4849 0.6959 0.0000
vt 0.9468 0.7525 0.0000
vt 0.9468 0.9013 0.0000
vt 0.5006 0.9013 0.0000
vt 0.5006 0.7525 0.0000
vt 0.2529 0.5198 0.0000
vt 0.3965 0.5195 0.0000
vt 0.3974 0.9503 0.0000
vt 0.2538 0.9506 0.0000
vt 0.0338 0.0061 0.0000
vt 0.4800 0.0059 0.0000
vt 0.4802 0.4520 0.0000
vt 0.0341 0.4523 0.0000
vt 0.0493 0.5196 0.0000
vt 0.1929 0.5195 0.0000
vt 0.1933 0.9503 0.0000
vt 0.0497 0.9504 0.0000
vt 0.5447 0.0061 0.0000
vt 0.9909 0.0059 0.0000
vt 0.9912 0.4520 0.0000
vt 0.5450 0.4523 0.0000
vt 0.3975 0.9934 0.0000
vt 0.2539 0.9937 0.0000
vt 0.0341 0.4672 0.0000
vt 0.4802 0.4669 0.0000
vt 0.4803 0.5115 0.0000
vt 0.0341 0.5118 0.0000
vt 0.1933 0.9934 0.0000
vt 0.0497 0.9935 0.0000
vt 0.5450 0.4672 0.0000
vt 0.9912 0.4669 0.0000
vt 0.9912 0.5115 0.0000
vt 0.5450 0.5118 0.0000
vt 0.0354 0.9935 0.0000
vt 0.0353 0.9504 0.0000
vt 0.9468 0.9161 0.0000
vt 0.5006 0.9161 0.0000
vt 0.4117 0.9502 0.0000
vt 0.4118 0.9933 0.0000
vt 0.2395 0.9937 0.0000
vt 0.2394 0.9506 0.0000
vt 0.5006 0.7377 0.0000
vt 0.9468 0.7377 0.0000
vt 0.2077 0.9503 0.0000
vt 0.2077 0.9933 0.0000
# 48 texture coords

o Box001
g Box001
usemtl wire_087225198
s 2
f 1/1/1 2/2/2 3/3/3 4/4/4 
s 4
f 5/5/5 6/6/5 7/7/6 8/8/6 
s 8
f 1/9/1 4/10/4 9/11/7 10/12/8 
s 16
f 4/13/4 3/14/3 11/15/9 9/16/7 
s 32
f 3/17/3 2/18/2 12/19/10 11/20/9 
s 64
f 2/21/2 1/22/1 10/23/8 12/24/10 
s off
f 10/12/8 9/11/7 6/25/5 5/26/5 
f 13/27/4 14/28/3 15/29/11 16/30/12 
f 11/20/9 12/19/10 8/31/6 7/32/6 
f 17/33/2 18/34/1 19/35/13 20/36/14 
f 9/16/7 11/15/9 14/28/3 13/27/4 
f 11/20/9 7/32/6 15/37/11 14/38/3 
f 7/7/6 6/6/5 16/39/12 15/40/11 
f 6/25/5 9/11/7 13/41/4 16/42/12 
f 12/24/10 10/23/8 18/34/1 17/33/2 
f 10/12/8 5/26/5 19/43/13 18/44/1 
f 5/5/5 8/8/6 20/45/14 19/46/13 
f 8/31/6 12/19/10 17/47/2 20/48/14 
# 18 polygons

