# 3ds Max Wavefront OBJ Exporter v0.99 - (c)2007 guruware
# File Created: 10.05.2023 21:25:52

mtllib p.mtl

#
# object Box014
#

v  -0.3705 0.0000 0.3705
v  -0.3705 0.0000 -0.3705
v  0.3705 0.0000 -0.3705
v  0.3705 0.0000 0.3705
v  -0.1530 1.5124 0.1530
v  0.1530 1.5124 0.1530
v  0.1530 1.5124 -0.1530
v  -0.1530 1.5124 -0.1530
v  0.3705 0.0784 0.3705
v  -0.3705 0.0784 0.3705
v  0.3705 0.0784 -0.3705
v  -0.3705 0.0784 -0.3705
v  0.2969 0.0784 0.2969
v  -0.2969 0.0784 0.2969
v  0.2969 0.0784 -0.2969
v  -0.2969 0.0784 -0.2969
v  0.2969 0.1514 0.2969
v  -0.2969 0.1514 0.2969
v  0.2969 0.1514 -0.2969
v  -0.2969 0.1514 -0.2969
v  0.2104 0.1514 0.2104
v  -0.2104 0.1514 0.2104
v  0.2104 0.1514 -0.2104
v  -0.2104 0.1514 -0.2104
v  0.2104 0.7658 0.2104
v  -0.2104 0.7658 0.2104
v  0.2104 0.7658 -0.2104
v  -0.2104 0.7658 -0.2104
v  0.2867 0.7658 0.2867
v  -0.2867 0.7658 0.2867
v  0.2867 0.7658 -0.2867
v  -0.2867 0.7658 -0.2867
v  0.2867 0.8602 0.2867
v  -0.2867 0.8602 0.2867
v  0.2867 0.8602 -0.2867
v  -0.2867 0.8602 -0.2867
v  0.2222 0.8602 0.2222
v  -0.2222 0.8602 0.2222
v  0.2222 0.8602 -0.2222
v  -0.2222 0.8602 -0.2222
v  0.2222 0.9336 0.2222
v  -0.2222 0.9336 0.2222
v  0.2222 0.9336 -0.2222
v  -0.2222 0.9336 -0.2222
v  -0.2222 1.3033 0.2222
v  0.2222 1.3033 0.2222
v  0.2731 1.3542 0.2731
v  -0.2731 1.3542 0.2731
v  0.2222 1.3033 -0.2222
v  0.2731 1.3542 -0.2731
v  -0.2222 1.3033 -0.2222
v  -0.2731 1.3542 -0.2731
v  0.2222 0.9703 -0.1780
v  0.2222 0.9703 0.1780
v  0.2222 1.2665 -0.1780
v  0.2222 1.2665 0.1780
v  -0.1779 0.9703 -0.2222
v  0.1779 0.9703 -0.2222
v  -0.1779 1.2665 -0.2222
v  0.1779 1.2665 -0.2222
v  -0.2222 0.9703 0.1777
v  -0.2222 0.9703 -0.1777
v  -0.2222 1.2663 0.1777
v  -0.2222 1.2663 -0.1777
v  0.1781 0.9703 0.2222
v  -0.1781 0.9703 0.2222
v  0.1781 1.2666 0.2222
v  -0.1781 1.2666 0.2222
v  0.1781 0.9703 0.1778
v  -0.1781 0.9703 0.1777
v  -0.1780 0.9703 -0.1777
v  0.1780 0.9703 -0.1778
v  -0.1781 1.2664 0.1777
v  0.1781 1.2665 0.1778
v  0.1780 1.2665 -0.1778
v  -0.1780 1.2664 -0.1777
v  0.2731 1.4284 0.2731
v  -0.2731 1.4284 0.2731
v  0.2731 1.4284 -0.2731
v  -0.2731 1.4284 -0.2731
v  0.2045 1.4284 0.2045
v  -0.2045 1.4284 0.2045
v  0.2045 1.4284 -0.2045
v  -0.2045 1.4284 -0.2045
# 84 vertices

vn 0.0000 -1.0000 -0.0000
vn 0.0000 1.0000 -0.0000
vn 0.0000 0.0000 1.0000
vn 1.0000 0.0000 -0.0000
vn 0.0000 0.0000 -1.0000
vn -1.0000 0.0000 -0.0000
vn 0.0000 1.0000 0.0000
vn -0.0000 1.0000 -0.0000
vn 0.0000 -1.0000 0.0000
vn -0.0000 -1.0000 -0.0000
vn 0.0000 -0.7072 0.7070
vn 0.7070 -0.7072 -0.0000
vn 0.0000 -0.7072 -0.7070
vn -0.7070 -0.7072 -0.0000
vn -0.0000 0.0000 -1.0000
vn 0.0000 -0.0000 -1.0000
vn -0.0000 -0.0000 -1.0000
vn -1.0000 0.0000 0.0000
vn -1.0000 -0.0000 -0.0000
vn -0.0000 -0.0000 1.0000
vn 0.0000 -0.0000 1.0000
vn -0.0000 1.0000 -0.0005
vn -0.0000 1.0000 0.0010
vn 0.0011 1.0000 -0.0000
vn -0.0004 1.0000 -0.0000
vn 0.0001 -1.0000 0.0025
vn 0.0001 -1.0000 -0.0009
vn -0.0006 -1.0000 0.0001
vn 0.0028 -1.0000 0.0001
vn 1.0000 0.0001 0.0003
vn 1.0000 0.0001 0.0017
vn -1.0000 0.0000 0.0020
vn 0.0027 0.0000 1.0000
vn 0.0027 0.0000 -1.0000
vn -0.0001 1.0000 -0.0001
vn 0.0003 -1.0000 0.0002
vn 0.0000 0.5224 0.8527
vn 0.8527 0.5224 -0.0000
vn 0.0000 0.5224 -0.8527
vn -0.8527 0.5224 -0.0000
# 40 vertex normals

vt 0.6601 0.4650 0.0000
vt 0.6601 0.4354 0.0000
vt 0.6897 0.4354 0.0000
vt 0.6897 0.4650 0.0000
vt 0.3760 0.6150 0.0000
vt 0.3637 0.6150 0.0000
vt 0.3637 0.6027 0.0000
vt 0.3760 0.6027 0.0000
vt 0.6266 0.5167 0.0000
vt 0.6562 0.5167 0.0000
vt 0.6562 0.5257 0.0000
vt 0.6266 0.5257 0.0000
vt 0.6266 0.5310 0.0000
vt 0.6562 0.5310 0.0000
vt 0.6562 0.5401 0.0000
vt 0.6266 0.5401 0.0000
vt 0.7031 0.4354 0.0000
vt 0.7327 0.4354 0.0000
vt 0.7327 0.4445 0.0000
vt 0.7031 0.4445 0.0000
vt 0.4928 0.5836 0.0000
vt 0.5224 0.5836 0.0000
vt 0.5224 0.5926 0.0000
vt 0.4928 0.5926 0.0000
vt 0.6410 0.4832 0.0000
vt 0.6706 0.4832 0.0000
vt 0.6676 0.4862 0.0000
vt 0.6439 0.4862 0.0000
vt 0.6706 0.5128 0.0000
vt 0.6676 0.5099 0.0000
vt 0.6410 0.5128 0.0000
vt 0.6439 0.5099 0.0000
vt 0.6743 0.0519 0.0000
vt 0.6505 0.0519 0.0000
vt 0.6505 0.0435 0.0000
vt 0.6743 0.0435 0.0000
vt 0.7270 0.4498 0.0000
vt 0.7507 0.4498 0.0000
vt 0.7507 0.4582 0.0000
vt 0.7270 0.4582 0.0000
vt 0.7270 0.4593 0.0000
vt 0.7507 0.4593 0.0000
vt 0.7507 0.4677 0.0000
vt 0.7270 0.4677 0.0000
vt 0.7173 0.4630 0.0000
vt 0.6935 0.4630 0.0000
vt 0.6935 0.4546 0.0000
vt 0.7173 0.4546 0.0000
vt 0.7557 0.4592 0.0000
vt 0.7557 0.4354 0.0000
vt 0.7591 0.4389 0.0000
vt 0.7591 0.4557 0.0000
vt 0.7794 0.4354 0.0000
vt 0.7759 0.4389 0.0000
vt 0.7794 0.4592 0.0000
vt 0.7759 0.4557 0.0000
vt 0.3637 0.2754 0.0000
vt 0.3637 0.2586 0.0000
vt 0.4344 0.2586 0.0000
vt 0.4344 0.2754 0.0000
vt 0.3637 0.2945 0.0000
vt 0.3637 0.2777 0.0000
vt 0.4344 0.2777 0.0000
vt 0.4344 0.2945 0.0000
vt 0.3064 0.4928 0.0000
vt 0.3232 0.4928 0.0000
vt 0.3232 0.5635 0.0000
vt 0.3064 0.5635 0.0000
vt 0.3637 0.3136 0.0000
vt 0.3637 0.2968 0.0000
vt 0.4344 0.2968 0.0000
vt 0.4344 0.3136 0.0000
vt 0.6918 0.5270 0.0000
vt 0.7086 0.5270 0.0000
vt 0.7117 0.5300 0.0000
vt 0.6888 0.5300 0.0000
vt 0.7086 0.5102 0.0000
vt 0.7117 0.5071 0.0000
vt 0.6918 0.5102 0.0000
vt 0.6888 0.5071 0.0000
vt 0.7522 0.4832 0.0000
vt 0.7522 0.5061 0.0000
vt 0.7413 0.5061 0.0000
vt 0.7413 0.4832 0.0000
vt 0.7379 0.4832 0.0000
vt 0.7379 0.5061 0.0000
vt 0.7270 0.5061 0.0000
vt 0.7270 0.4832 0.0000
vt 0.7331 0.5071 0.0000
vt 0.7331 0.5300 0.0000
vt 0.7222 0.5300 0.0000
vt 0.7222 0.5071 0.0000
vt 0.7235 0.4832 0.0000
vt 0.7235 0.5061 0.0000
vt 0.7127 0.5061 0.0000
vt 0.7127 0.4832 0.0000
vt 0.6888 0.4832 0.0000
vt 0.7117 0.4832 0.0000
vt 0.7091 0.4858 0.0000
vt 0.6913 0.4858 0.0000
vt 0.7117 0.5061 0.0000
vt 0.7091 0.5036 0.0000
vt 0.6888 0.5061 0.0000
vt 0.6913 0.5036 0.0000
vt 0.4295 0.3801 0.0000
vt 0.4295 0.3979 0.0000
vt 0.4210 0.3979 0.0000
vt 0.4210 0.3801 0.0000
vt 0.4402 0.3979 0.0000
vt 0.4402 0.3801 0.0000
vt 0.4487 0.3801 0.0000
vt 0.4487 0.3979 0.0000
vt 0.5060 0.3562 0.0000
vt 0.5060 0.3740 0.0000
vt 0.4975 0.3740 0.0000
vt 0.4975 0.3562 0.0000
vt 0.3637 0.3740 0.0000
vt 0.3637 0.3562 0.0000
vt 0.3722 0.3562 0.0000
vt 0.3722 0.3740 0.0000
vt 0.3785 0.3801 0.0000
vt 0.3785 0.3979 0.0000
vt 0.3723 0.3999 0.0000
vt 0.3723 0.3781 0.0000
vt 0.4912 0.3979 0.0000
vt 0.4912 0.3801 0.0000
vt 0.4974 0.3781 0.0000
vt 0.4974 0.3999 0.0000
vt 0.4550 0.3562 0.0000
vt 0.4550 0.3740 0.0000
vt 0.4488 0.3760 0.0000
vt 0.4488 0.3542 0.0000
vt 0.4147 0.3740 0.0000
vt 0.4147 0.3562 0.0000
vt 0.4209 0.3542 0.0000
vt 0.4209 0.3760 0.0000
vt 0.4529 0.3819 0.0000
vt 0.4529 0.3961 0.0000
vt 0.4870 0.3819 0.0000
vt 0.4870 0.3961 0.0000
vt 0.4933 0.3722 0.0000
vt 0.4933 0.3580 0.0000
vt 0.4592 0.3722 0.0000
vt 0.4592 0.3580 0.0000
vt 0.3764 0.3580 0.0000
vt 0.3764 0.3722 0.0000
vt 0.4105 0.3580 0.0000
vt 0.4105 0.3722 0.0000
vt 0.4168 0.3961 0.0000
vt 0.4168 0.3819 0.0000
vt 0.3827 0.3961 0.0000
vt 0.3827 0.3819 0.0000
vt 0.7545 0.6477 0.0000
vt 0.7543 0.6619 0.0000
vt 0.7525 0.6619 0.0000
vt 0.7527 0.6477 0.0000
vt 0.7366 0.6617 0.0000
vt 0.7367 0.6475 0.0000
vt 0.7385 0.6475 0.0000
vt 0.7383 0.6617 0.0000
vt 0.7385 0.6457 0.0000
vt 0.7527 0.6459 0.0000
vt 0.7525 0.6636 0.0000
vt 0.7383 0.6635 0.0000
vt 0.7573 0.5679 0.0000
vt 0.7431 0.5679 0.0000
vt 0.7431 0.5661 0.0000
vt 0.7573 0.5661 0.0000
vt 0.7431 0.5502 0.0000
vt 0.7573 0.5502 0.0000
vt 0.7573 0.5519 0.0000
vt 0.7431 0.5519 0.0000
vt 0.7591 0.5519 0.0000
vt 0.7591 0.5661 0.0000
vt 0.7413 0.5661 0.0000
vt 0.7413 0.5519 0.0000
vt 0.3368 0.3166 0.0000
vt 0.3351 0.3166 0.0000
vt 0.3351 0.2825 0.0000
vt 0.3368 0.2825 0.0000
vt 0.3368 0.2783 0.0000
vt 0.3351 0.2784 0.0000
vt 0.3351 0.2443 0.0000
vt 0.3368 0.2443 0.0000
vt 0.3368 0.3931 0.0000
vt 0.3351 0.3930 0.0000
vt 0.3351 0.3590 0.0000
vt 0.3368 0.3590 0.0000
vt 0.3368 0.4695 0.0000
vt 0.3351 0.4695 0.0000
vt 0.3351 0.4354 0.0000
vt 0.3368 0.4354 0.0000
vt 0.3368 0.4313 0.0000
vt 0.3351 0.4313 0.0000
vt 0.3351 0.3972 0.0000
vt 0.3368 0.3972 0.0000
vt 0.3368 0.3548 0.0000
vt 0.3351 0.3548 0.0000
vt 0.3351 0.3207 0.0000
vt 0.3368 0.3207 0.0000
vt 0.5741 0.1074 0.0000
vt 0.5741 0.1057 0.0000
vt 0.6081 0.1057 0.0000
vt 0.6081 0.1074 0.0000
vt 0.3368 0.5078 0.0000
vt 0.3351 0.5077 0.0000
vt 0.3351 0.4737 0.0000
vt 0.3368 0.4737 0.0000
vt 0.3637 0.3999 0.0000
vt 0.3637 0.3781 0.0000
vt 0.5060 0.3781 0.0000
vt 0.5060 0.3999 0.0000
vt 0.4402 0.3760 0.0000
vt 0.4402 0.3542 0.0000
vt 0.4295 0.3542 0.0000
vt 0.4295 0.3760 0.0000
vt 0.7058 0.5310 0.0000
vt 0.7058 0.5529 0.0000
vt 0.7031 0.5501 0.0000
vt 0.7031 0.5338 0.0000
vt 0.6840 0.5529 0.0000
vt 0.6867 0.5501 0.0000
vt 0.6840 0.5310 0.0000
vt 0.6867 0.5338 0.0000
vt 0.7864 0.0295 0.0000
vt 0.7700 0.0295 0.0000
vt 0.7721 0.0196 0.0000
vt 0.7843 0.0196 0.0000
vt 0.7079 0.5932 0.0000
vt 0.7242 0.5932 0.0000
vt 0.7222 0.6030 0.0000
vt 0.7099 0.6030 0.0000
vt 0.7130 0.5741 0.0000
vt 0.7130 0.5904 0.0000
vt 0.7031 0.5883 0.0000
vt 0.7031 0.5761 0.0000
vt 0.7512 0.6123 0.0000
vt 0.7512 0.6286 0.0000
vt 0.7413 0.6266 0.0000
vt 0.7413 0.6143 0.0000
# 240 texture coords

o Box014
g Box014
usemtl obj3
s 2
f 1/1/1 2/2/1 3/3/1 4/4/1 
s 4
f 5/5/2 6/6/2 7/7/2 8/8/2 
s 8
f 1/9/3 4/10/3 9/11/3 10/12/3 
s 16
f 4/13/4 3/14/4 11/15/4 9/16/4 
s 32
f 3/17/5 2/18/5 12/19/5 11/20/5 
s 64
f 2/21/6 1/22/6 10/23/6 12/24/6 
s off
f 10/25/7 9/26/7 13/27/7 14/28/7 
f 9/26/2 11/29/2 15/30/2 13/27/2 
f 11/29/2 12/31/2 16/32/2 15/30/2 
f 12/31/8 10/25/8 14/28/8 16/32/8 
f 14/33/3 13/34/3 17/35/3 18/36/3 
f 13/37/4 15/38/4 19/39/4 17/40/4 
f 15/41/5 16/42/5 20/43/5 19/44/5 
f 16/45/6 14/46/6 18/47/6 20/48/6 
f 18/49/7 17/50/7 21/51/7 22/52/7 
f 17/50/2 19/53/2 23/54/2 21/51/2 
f 19/53/2 20/55/2 24/56/2 23/54/2 
f 20/55/8 18/49/8 22/52/8 24/56/8 
f 22/57/3 21/58/3 25/59/3 26/60/3 
f 21/61/4 23/62/4 27/63/4 25/64/4 
f 23/65/5 24/66/5 28/67/5 27/68/5 
f 24/69/6 22/70/6 26/71/6 28/72/6 
f 26/73/9 25/74/9 29/75/9 30/76/9 
f 25/74/1 27/77/1 31/78/1 29/75/1 
f 27/77/1 28/79/1 32/80/1 31/78/1 
f 28/79/10 26/73/10 30/76/10 32/80/10 
f 30/81/3 29/82/3 33/83/3 34/84/3 
f 29/85/4 31/86/4 35/87/4 33/88/4 
f 31/89/5 32/90/5 36/91/5 35/92/5 
f 32/93/6 30/94/6 34/95/6 36/96/6 
f 34/97/7 33/98/7 37/99/7 38/100/7 
f 33/98/2 35/101/2 39/102/2 37/99/2 
f 35/101/2 36/103/2 40/104/2 39/102/2 
f 36/103/8 34/97/8 38/100/8 40/104/8 
f 38/105/3 37/106/3 41/107/3 42/108/3 
f 37/109/4 39/110/4 43/111/4 41/112/4 
f 39/113/5 40/114/5 44/115/5 43/116/5 
f 40/117/6 38/118/6 42/119/6 44/120/6 
f 45/121/11 46/122/11 47/123/11 48/124/11 
f 46/125/12 49/126/12 50/127/12 47/128/12 
f 49/129/13 51/130/13 52/131/13 50/132/13 
f 51/133/14 45/134/14 48/135/14 52/136/14 
f 41/112/4 43/111/4 53/137/4 54/138/4 
f 43/111/4 49/126/4 55/139/4 53/137/4 
f 49/126/4 46/125/4 56/140/4 55/139/4 
f 46/125/4 41/112/4 54/138/4 56/140/4 
f 43/116/15 44/115/15 57/141/15 58/142/15 
f 44/115/16 51/130/16 59/143/16 57/141/16 
f 51/130/5 49/129/5 60/144/5 59/143/5 
f 49/129/17 43/116/17 58/142/17 60/144/17 
f 44/120/18 42/119/18 61/145/18 62/146/18 
f 42/119/19 45/134/19 63/147/19 61/145/19 
f 45/134/6 51/133/6 64/148/6 63/147/6 
f 51/133/6 44/120/6 62/146/6 64/148/6 
f 42/108/3 41/107/3 65/149/3 66/150/3 
f 41/107/20 46/122/20 67/151/20 65/149/20 
f 46/122/3 45/121/3 68/152/3 67/151/3 
f 45/121/21 42/108/21 66/150/21 68/152/21 
f 66/153/22 65/154/22 69/155/22 70/156/22 
f 58/157/23 57/158/23 71/159/23 72/160/23 
f 62/161/24 61/162/24 70/156/24 71/159/24 
f 54/163/25 53/164/25 72/160/25 69/155/25 
f 67/165/26 68/166/26 73/167/26 74/168/26 
f 59/169/27 60/170/27 75/171/27 76/172/27 
f 55/173/28 56/174/28 74/168/28 75/171/28 
f 63/175/29 64/176/29 76/172/29 73/167/29 
f 67/177/6 74/178/6 69/179/6 65/180/6 
f 73/181/30 68/182/30 66/183/30 70/184/30 
f 59/185/31 76/186/31 71/187/31 57/188/31 
f 75/189/32 60/190/32 58/191/32 72/192/32 
f 55/193/33 75/194/33 72/195/33 53/196/33 
f 74/197/34 56/198/34 54/199/34 69/200/34 
f 63/201/17 73/202/17 70/203/17 61/204/17 
f 76/205/3 64/206/3 62/207/3 71/208/3 
f 69/155/35 72/160/35 71/159/35 70/156/35 
f 73/167/36 76/172/36 75/171/36 74/168/36 
f 48/124/3 47/123/3 77/209/3 78/210/3 
f 47/128/4 50/127/4 79/211/4 77/212/4 
f 50/132/5 52/131/5 80/213/5 79/214/5 
f 52/136/6 48/135/6 78/215/6 80/216/6 
f 78/217/7 77/218/7 81/219/7 82/220/7 
f 77/218/2 79/221/2 83/222/2 81/219/2 
f 79/221/2 80/223/2 84/224/2 83/222/2 
f 80/223/8 78/217/8 82/220/8 84/224/8 
f 82/225/37 81/226/37 6/227/37 5/228/37 
f 81/229/38 83/230/38 7/231/38 6/232/38 
f 83/233/39 84/234/39 8/235/39 7/236/39 
f 84/237/40 82/238/40 5/239/40 8/240/40 
# 88 polygons

