# 3ds Max Wavefront OBJ Exporter v0.99 - (c)2007 guruware
# File Created: 12.04.2023 13:38:46

#
# object GeoSphere001
#

v  0.0000 81.0890 -0.0000
v  10.3384 76.8067 -0.0000
v  0.0000 76.8067 -10.3384
v  14.6206 66.4684 -0.0000
v  10.3384 66.4684 -10.3384
v  0.0000 66.4684 -14.6206
v  -10.3384 76.8067 -0.0000
v  -10.3384 66.4684 -10.3384
v  -14.6206 66.4684 -0.0000
v  0.0000 76.8067 10.3384
v  -10.3384 66.4684 10.3384
v  0.0000 66.4684 14.6206
v  10.3384 66.4684 10.3384
v  0.0000 51.8477 -0.0000
v  0.0000 56.1300 -10.3384
v  10.3384 56.1300 -0.0000
v  -10.3384 56.1300 -0.0000
v  0.0000 56.1300 10.3384
# 18 vertices

vn 0.0000 1.0000 -0.0000
vn 0.7071 0.7071 -0.0000
vn 0.0000 0.7071 -0.7071
vn 1.0000 0.0000 -0.0000
vn 0.7071 0.0000 -0.7071
vn 0.0000 0.0000 -1.0000
vn -0.7071 0.7071 -0.0000
vn -0.7071 0.0000 -0.7071
vn -1.0000 0.0000 -0.0000
vn -0.0000 0.7071 0.7071
vn -0.7071 0.0000 0.7071
vn 0.0000 0.0000 1.0000
vn 0.7071 0.0000 0.7071
vn 0.0000 -1.0000 -0.0000
vn 0.0000 -0.7071 -0.7071
vn 0.7071 -0.7071 -0.0000
vn -0.7071 -0.7071 -0.0000
vn -0.0000 -0.7071 0.7071
# 18 vertex normals

vt 0.1788 0.9800 0.0000
vt 0.2238 0.8586 0.0000
vt 0.3772 0.9770 0.0000
vt 0.2681 0.7394 0.0000
vt 0.3874 0.7836 0.0000
vt 0.5087 0.8286 0.0000
vt 0.1644 0.0230 0.0000
vt 0.3627 0.0200 0.0000
vt 0.2130 0.1429 0.0000
vt 0.4987 0.1644 0.0000
vt 0.3787 0.2130 0.0000
vt 0.2608 0.2608 0.0000
vt 0.0200 0.1590 0.0000
vt 0.1429 0.3087 0.0000
vt 0.0230 0.3573 0.0000
vt 0.0304 0.8484 0.0000
vt 0.0274 0.6501 0.0000
vt 0.1488 0.6951 0.0000
vt 0.3573 0.4987 0.0000
vt 0.5057 0.6303 0.0000
vt 0.3123 0.6201 0.0000
vt 0.3087 0.3788 0.0000
vt 0.5017 0.3627 0.0000
vt 0.1590 0.5017 0.0000
# 24 texture coords

o GeoSphere001
g GeoSphere001
s 1
f 1/1/1 2/2/2 3/3/3 
f 2/2/2 4/4/4 5/5/5 
f 2/2/2 5/5/5 3/3/3 
f 3/3/3 5/5/5 6/6/6 
f 1/7/1 3/8/3 7/9/7 
f 3/8/3 6/10/6 8/11/8 
f 3/8/3 8/11/8 7/9/7 
f 7/9/7 8/11/8 9/12/9 
f 1/7/1 7/9/7 10/13/10 
f 7/9/7 9/12/9 11/14/11 
f 7/9/7 11/14/11 10/13/10 
f 10/13/10 11/14/11 12/15/12 
f 1/1/1 10/16/10 2/2/2 
f 10/16/10 12/17/12 13/18/13 
f 10/16/10 13/18/13 2/2/2 
f 2/2/2 13/18/13 4/4/4 
f 14/19/14 15/20/15 16/21/16 
f 15/20/15 6/6/6 5/5/5 
f 15/20/15 5/5/5 16/21/16 
f 16/21/16 5/5/5 4/4/4 
f 14/19/14 17/22/17 15/23/15 
f 17/22/17 9/12/9 8/11/8 
f 17/22/17 8/11/8 15/23/15 
f 15/23/15 8/11/8 6/10/6 
f 14/19/14 18/24/18 17/22/17 
f 18/24/18 12/15/12 11/14/11 
f 18/24/18 11/14/11 17/22/17 
f 17/22/17 11/14/11 9/12/9 
f 14/19/14 16/21/16 18/24/18 
f 16/21/16 4/4/4 13/18/13 
f 16/21/16 13/18/13 18/24/18 
f 18/24/18 13/18/13 12/17/12 
# 0 polygons - 32 triangles

#
# object Line001
#

v  0.0000 0.0000 -0.0000
v  12.4239 2.5084 -12.4239
v  17.5701 2.5084 -0.0000
v  12.7274 4.8872 -12.7274
v  17.9992 4.8872 -0.0000
v  12.4801 5.1281 -12.4801
v  17.6495 5.1281 -0.0000
v  9.7295 5.4457 -9.7295
v  13.7595 5.4457 -0.0000
v  11.7438 9.6593 -11.7438
v  16.6082 9.6593 -0.0000
v  9.7443 15.8581 -9.7443
v  13.7806 15.8581 -0.0000
v  7.6558 22.5139 -7.6558
v  10.8269 22.5139 -0.0000
v  7.4841 26.0069 -7.4841
v  10.5841 26.0069 0.0000
v  6.7864 26.2258 -6.7864
v  9.5974 26.2258 -0.0000
v  6.1888 27.7378 -6.1888
v  8.7523 27.7378 -0.0000
v  5.2787 32.3133 -5.2787
v  7.4652 32.3133 0.0000
v  6.2178 45.0597 0.0000
v  4.3966 45.0597 -4.3966
v  5.8840 46.2118 -5.8840
v  8.3212 46.2118 0.0000
v  6.8105 46.6050 -6.8104
v  9.6314 46.6050 0.0000
v  6.8314 47.5511 -6.8314
v  9.6611 47.5511 0.0000
v  9.4486 47.7927 0.0000
v  6.6812 47.7927 -6.6812
v  0.0533 48.9476 -0.0533
v  0.0753 48.9476 0.0000
v  0.0000 48.9497 -0.0000
v  0.0000 48.9497 0.0000
v  -0.0000 2.5084 -17.5701
v  -0.0000 4.8872 -17.9992
v  -0.0000 5.1281 -17.6495
v  -0.0000 5.4457 -13.7595
v  0.0000 9.6593 -16.6082
v  0.0000 15.8581 -13.7806
v  0.0000 22.5139 -10.8269
v  0.0000 26.0069 -10.5841
v  0.0000 26.2258 -9.5974
v  0.0000 27.7378 -8.7523
v  0.0000 32.3133 -7.4652
v  0.0000 45.0597 -6.2178
v  0.0000 46.2118 -8.3212
v  0.0000 46.6050 -9.6314
v  0.0000 47.5511 -9.6611
v  0.0000 47.7927 -9.4487
v  0.0000 48.9476 -0.0754
v  -12.4239 2.5084 -12.4239
v  -12.7274 4.8872 -12.7274
v  -12.4801 5.1281 -12.4801
v  -9.7295 5.4457 -9.7295
v  -11.7438 9.6593 -11.7438
v  -9.7443 15.8581 -9.7443
v  -7.6558 22.5139 -7.6558
v  -7.4841 26.0069 -7.4841
v  -6.7864 26.2258 -6.7864
v  -6.1888 27.7378 -6.1888
v  -5.2787 32.3133 -5.2787
v  -4.3966 45.0597 -4.3967
v  -5.8840 46.2118 -5.8840
v  -6.8104 46.6050 -6.8105
v  -6.8314 47.5511 -6.8314
v  -6.6812 47.7927 -6.6812
v  -0.0533 48.9476 -0.0533
v  -17.5701 2.5084 0.0000
v  -17.9992 4.8872 0.0000
v  -17.6495 5.1281 0.0000
v  -13.7595 5.4457 0.0000
v  -16.6082 9.6593 -0.0000
v  -13.7806 15.8581 -0.0000
v  -10.8269 22.5139 -0.0000
v  -10.5841 26.0069 -0.0000
v  -9.5974 26.2258 -0.0000
v  -8.7523 27.7378 -0.0000
v  -7.4652 32.3133 -0.0000
v  -6.2178 45.0597 -0.0000
v  -8.3212 46.2118 -0.0000
v  -9.6314 46.6050 -0.0000
v  -9.6611 47.5511 -0.0000
v  -9.4486 47.7927 -0.0000
v  -0.0753 48.9476 -0.0000
v  -12.4239 2.5084 12.4239
v  -12.7274 4.8872 12.7274
v  -12.4801 5.1281 12.4801
v  -9.7295 5.4457 9.7295
v  -11.7438 9.6593 11.7438
v  -9.7443 15.8581 9.7443
v  -7.6558 22.5139 7.6558
v  -7.4841 26.0069 7.4841
v  -6.7864 26.2258 6.7864
v  -6.1888 27.7378 6.1888
v  -5.2787 32.3133 5.2787
v  -4.3966 45.0597 4.3966
v  -5.8840 46.2118 5.8840
v  -6.8105 46.6050 6.8104
v  -6.8314 47.5511 6.8314
v  -6.6812 47.7927 6.6812
v  -0.0533 48.9476 0.0533
v  -0.0000 48.9497 -0.0000
v  0.0000 2.5084 17.5701
v  0.0000 4.8872 17.9992
v  0.0000 5.1281 17.6495
v  0.0000 5.4457 13.7595
v  0.0000 9.6593 16.6082
v  -0.0000 15.8581 13.7806
v  -0.0000 22.5139 10.8269
v  -0.0000 26.0069 10.5841
v  -0.0000 26.2258 9.5974
v  -0.0000 27.7378 8.7523
v  -0.0000 32.3133 7.4652
v  -0.0000 45.0597 6.2178
v  -0.0000 46.2118 8.3212
v  -0.0000 46.6050 9.6314
v  -0.0000 47.5511 9.6611
v  -0.0000 47.7927 9.4486
v  -0.0000 48.9476 0.0753
v  12.4240 2.5084 12.4239
v  12.7274 4.8872 12.7274
v  12.4801 5.1281 12.4801
v  9.7295 5.4457 9.7295
v  11.7438 9.6593 11.7438
v  9.7443 15.8581 9.7443
v  7.6558 22.5139 7.6558
v  7.4841 26.0069 7.4841
v  6.7864 26.2258 6.7864
v  6.1888 27.7378 6.1888
v  5.2787 32.3133 5.2787
v  4.3966 45.0597 4.3966
v  5.8840 46.2118 5.8840
v  6.8104 46.6050 6.8104
v  6.8314 47.5511 6.8314
v  6.6812 47.7927 6.6812
v  0.0533 48.9476 0.0533
v  4.6286 38.6865 -4.6286
v  6.5458 38.6865 0.0000
v  0.0000 38.6865 -6.5458
v  -4.6286 38.6865 -4.6286
v  -6.5458 38.6865 -0.0000
v  -4.6286 38.6865 4.6285
v  -0.0000 38.6865 6.5458
v  4.6286 38.6865 4.6286
# 148 vertices

vn -0.0000 -1.0000 0.0000
vn 0.5345 -0.6546 -0.5345
vn 0.7559 -0.6546 0.0000
vn 0.6639 0.3442 -0.6639
vn 0.9389 0.3442 -0.0000
vn 0.2759 0.9207 -0.2759
vn 0.3902 0.9207 -0.0000
vn 0.5939 0.5428 -0.5939
vn 0.8399 0.5428 -0.0000
vn 0.7051 -0.0747 -0.7051
vn 0.9972 -0.0747 -0.0000
vn 0.6447 0.4108 -0.6447
vn 0.9117 0.4108 0.0000
vn 0.6844 0.2516 -0.6844
vn 0.9678 0.2516 0.0000
vn 0.5719 0.5882 -0.5719
vn 0.8087 0.5882 0.0000
vn 0.3701 0.8521 -0.3701
vn 0.5234 0.8521 -0.0000
vn 0.6504 0.3925 -0.6504
vn 0.9197 0.3925 0.0000
vn 0.6913 0.2105 -0.6913
vn 0.9776 0.2105 0.0000
vn 0.8336 -0.5524 0.0000
vn 0.5894 -0.5524 -0.5894
vn 0.2570 -0.9316 -0.2570
vn 0.3634 -0.9316 0.0000
vn 0.5912 -0.5486 -0.5912
vn 0.8361 -0.5486 0.0000
vn 0.6717 0.3127 -0.6717
vn 0.9499 0.3127 0.0000
vn 0.5306 0.8476 -0.0000
vn 0.3752 0.8476 -0.3752
vn 0.0614 0.9962 -0.0614
vn 0.0868 0.9962 0.0000
vn 0.0387 -0.9962 0.0777
vn -0.0275 -0.9942 0.1039
vn 0.0000 -0.6546 -0.7559
vn -0.0000 0.3442 -0.9389
vn -0.0000 0.9207 -0.3902
vn -0.0000 0.5428 -0.8399
vn -0.0000 -0.0747 -0.9972
vn 0.0000 0.4108 -0.9117
vn 0.0000 0.2516 -0.9678
vn 0.0000 0.5882 -0.8087
vn 0.0000 0.8521 -0.5234
vn 0.0000 0.3925 -0.9197
vn 0.0000 0.2105 -0.9776
vn 0.0000 -0.5524 -0.8336
vn 0.0000 -0.9316 -0.3634
vn 0.0000 -0.5486 -0.8361
vn 0.0000 0.3127 -0.9499
vn -0.0000 0.8476 -0.5306
vn 0.0000 0.9962 -0.0868
vn 0.1651 -0.9859 0.0273
vn -0.5345 -0.6546 -0.5345
vn -0.6639 0.3442 -0.6639
vn -0.2759 0.9207 -0.2759
vn -0.5939 0.5428 -0.5939
vn -0.7051 -0.0747 -0.7051
vn -0.6447 0.4108 -0.6447
vn -0.6844 0.2516 -0.6844
vn -0.5719 0.5882 -0.5719
vn -0.3701 0.8521 -0.3701
vn -0.6504 0.3925 -0.6504
vn -0.6913 0.2105 -0.6913
vn -0.5894 -0.5524 -0.5894
vn -0.2570 -0.9316 -0.2570
vn -0.5912 -0.5486 -0.5912
vn -0.6717 0.3127 -0.6717
vn -0.3752 0.8476 -0.3752
vn -0.0614 0.9962 -0.0614
vn 0.0772 -0.9963 -0.0382
vn -0.7559 -0.6546 0.0000
vn -0.9389 0.3442 0.0000
vn -0.3902 0.9207 -0.0000
vn -0.8399 0.5428 0.0000
vn -0.9972 -0.0747 0.0000
vn -0.9117 0.4108 -0.0000
vn -0.9678 0.2516 -0.0000
vn -0.8087 0.5882 -0.0000
vn -0.5234 0.8521 -0.0000
vn -0.9197 0.3925 -0.0000
vn -0.9776 0.2105 -0.0000
vn -0.8336 -0.5524 -0.0000
vn -0.3634 -0.9316 -0.0000
vn -0.8361 -0.5486 -0.0000
vn -0.9499 0.3127 -0.0000
vn -0.5306 0.8476 0.0000
vn -0.0868 0.9962 -0.0000
vn 0.0275 -0.9952 -0.0939
vn -0.5345 -0.6546 0.5345
vn -0.6639 0.3442 0.6639
vn -0.2759 0.9207 0.2759
vn -0.5939 0.5428 0.5939
vn -0.7051 -0.0747 0.7051
vn -0.6447 0.4108 0.6447
vn -0.6844 0.2516 0.6844
vn -0.5719 0.5882 0.5719
vn -0.3701 0.8521 0.3701
vn -0.6504 0.3925 0.6504
vn -0.6913 0.2105 0.6913
vn -0.5894 -0.5524 0.5894
vn -0.2570 -0.9316 0.2570
vn -0.5912 -0.5486 0.5912
vn -0.6717 0.3127 0.6717
vn -0.3752 0.8476 0.3752
vn -0.0614 0.9962 0.0614
vn -0.0368 -0.9964 -0.0758
vn 0.0000 -0.6546 0.7559
vn 0.0000 0.3442 0.9389
vn 0.0000 0.9207 0.3902
vn 0.0000 0.5428 0.8399
vn 0.0000 -0.0747 0.9972
vn 0.0000 0.4108 0.9117
vn -0.0000 0.2516 0.9678
vn -0.0000 0.5882 0.8087
vn -0.0000 0.8521 0.5234
vn -0.0000 0.3925 0.9197
vn -0.0000 0.2105 0.9776
vn -0.0000 -0.5524 0.8336
vn -0.0000 -0.9316 0.3634
vn 0.0000 -0.5486 0.8361
vn -0.0000 0.3127 0.9499
vn 0.0000 0.8476 0.5306
vn -0.0000 0.9962 0.0868
vn -0.1706 -0.9850 -0.0273
vn 0.5345 -0.6546 0.5345
vn 0.6639 0.3442 0.6639
vn 0.2759 0.9207 0.2759
vn 0.5939 0.5428 0.5939
vn 0.7051 -0.0747 0.7051
vn 0.6447 0.4108 0.6447
vn 0.6844 0.2516 0.6844
vn 0.5719 0.5882 0.5719
vn 0.3701 0.8521 0.3701
vn 0.6504 0.3925 0.6504
vn 0.6913 0.2105 0.6913
vn 0.5894 -0.5524 0.5894
vn 0.2570 -0.9316 0.2570
vn 0.5912 -0.5486 0.5912
vn 0.6717 0.3127 0.6717
vn 0.3752 0.8476 0.3752
vn 0.0614 0.9962 0.0614
vn -0.0640 -0.9976 0.0249
vn 0.7037 0.0983 -0.7037
vn 0.9952 0.0983 0.0000
vn 0.0000 0.0983 -0.9952
vn -0.7037 0.0983 -0.7037
vn -0.9952 0.0983 -0.0000
vn -0.7037 0.0983 0.7037
vn -0.0000 0.0983 0.9952
vn 0.7037 0.0983 0.7037
# 153 vertex normals

vt 0.2015 0.2015 0.0000
vt 0.3332 0.0764 0.0000
vt 0.3831 0.2061 0.0000
vt 0.1053 0.6401 0.0000
vt 0.0387 0.5170 0.0000
vt 0.0600 0.5038 0.0000
vt 0.1256 0.6267 0.0000
vt 0.0660 0.5051 0.0000
vt 0.1302 0.6256 0.0000
vt 0.1055 0.5035 0.0000
vt 0.1634 0.6045 0.0000
vt 0.1424 0.4648 0.0000
vt 0.2027 0.5744 0.0000
vt 0.2117 0.4403 0.0000
vt 0.2593 0.5364 0.0000
vt 0.2850 0.4214 0.0000
vt 0.3235 0.4986 0.0000
vt 0.3164 0.4092 0.0000
vt 0.3544 0.4810 0.0000
vt 0.3257 0.4129 0.0000
vt 0.3639 0.4781 0.0000
vt 0.3405 0.4126 0.0000
vt 0.3795 0.4700 0.0000
vt 0.3783 0.3953 0.0000
vt 0.4172 0.4398 0.0000
vt 0.4933 0.3320 0.0000
vt 0.4465 0.3105 0.0000
vt 0.4380 0.2893 0.0000
vt 0.5001 0.3061 0.0000
vt 0.4308 0.2755 0.0000
vt 0.5025 0.2907 0.0000
vt 0.4311 0.2656 0.0000
vt 0.5049 0.2808 0.0000
vt 0.0387 0.8394 0.0000
vt 0.0770 0.7754 0.0000
vt 0.1347 0.8532 0.0000
vt 0.1345 0.8535 0.0000
vt 0.1351 0.8537 0.0000
vt 0.1352 0.8537 0.0000
vt 0.2061 0.0200 0.0000
vt 0.9800 0.8946 0.0000
vt 0.8468 0.9375 0.0000
vt 0.8414 0.9138 0.0000
vt 0.9737 0.8702 0.0000
vt 0.8388 0.9098 0.0000
vt 0.9685 0.8670 0.0000
vt 0.8293 0.8717 0.0000
vt 0.9410 0.8387 0.0000
vt 0.8217 0.8228 0.0000
vt 0.9410 0.7851 0.0000
vt 0.8070 0.7562 0.0000
vt 0.9078 0.7196 0.0000
vt 0.7868 0.6846 0.0000
vt 0.8680 0.6554 0.0000
vt 0.7767 0.6507 0.0000
vt 0.8536 0.6249 0.0000
vt 0.7717 0.6422 0.0000
vt 0.8444 0.6212 0.0000
vt 0.7661 0.6253 0.0000
vt 0.8339 0.6108 0.0000
vt 0.7594 0.5771 0.0000
vt 0.8182 0.5723 0.0000
vt 0.8282 0.4637 0.0000
vt 0.7795 0.4468 0.0000
vt 0.7923 0.4234 0.0000
vt 0.8489 0.4541 0.0000
vt 0.8013 0.4106 0.0000
vt 0.8637 0.4490 0.0000
vt 0.8064 0.4018 0.0000
vt 0.8702 0.4417 0.0000
vt 0.1493 0.7572 0.0000
vt 0.1351 0.8531 0.0000
vt 0.1350 0.8538 0.0000
vt 0.0764 0.0699 0.0000
vt 0.7063 0.9544 0.0000
vt 0.7056 0.9299 0.0000
vt 0.7051 0.9250 0.0000
vt 0.7043 0.8861 0.0000
vt 0.7038 0.8372 0.0000
vt 0.7024 0.7679 0.0000
vt 0.6995 0.6926 0.0000
vt 0.6976 0.6554 0.0000
vt 0.6958 0.6436 0.0000
vt 0.6954 0.6243 0.0000
vt 0.6985 0.5736 0.0000
vt 0.7247 0.4368 0.0000
vt 0.7304 0.4102 0.0000
vt 0.7329 0.3953 0.0000
vt 0.7340 0.3853 0.0000
vt 0.2133 0.7956 0.0000
vt 0.1355 0.8533 0.0000
vt 0.1349 0.8537 0.0000
vt 0.0200 0.1969 0.0000
vt 0.5655 0.9427 0.0000
vt 0.5699 0.9185 0.0000
vt 0.5707 0.9136 0.0000
vt 0.5777 0.8754 0.0000
vt 0.5865 0.8271 0.0000
vt 0.5990 0.7584 0.0000
vt 0.6123 0.6834 0.0000
vt 0.6187 0.6459 0.0000
vt 0.6204 0.6334 0.0000
vt 0.6243 0.6133 0.0000
vt 0.6362 0.5632 0.0000
vt 0.6708 0.4307 0.0000
vt 0.6694 0.4024 0.0000
vt 0.6637 0.3859 0.0000
vt 0.6596 0.3773 0.0000
vt 0.2314 0.8679 0.0000
vt 0.1356 0.8537 0.0000
vt 0.1349 0.8536 0.0000
vt 0.0699 0.3267 0.0000
vt 0.4301 0.9034 0.0000
vt 0.4392 0.8806 0.0000
vt 0.4411 0.8759 0.0000
vt 0.4555 0.8399 0.0000
vt 0.4738 0.7943 0.0000
vt 0.4999 0.7292 0.0000
vt 0.5283 0.6584 0.0000
vt 0.5426 0.6228 0.0000
vt 0.5474 0.6109 0.0000
vt 0.5551 0.5917 0.0000
vt 0.5741 0.5443 0.0000
vt 0.6192 0.4320 0.0000
vt 0.6188 0.4331 0.0000
vt 0.6161 0.4398 0.0000
vt 0.6164 0.4391 0.0000
vt 0.1931 0.9319 0.0000
vt 0.1354 0.8541 0.0000
vt 0.1350 0.8535 0.0000
vt 0.1969 0.3831 0.0000
vt 0.3050 0.8382 0.0000
vt 0.3185 0.8177 0.0000
vt 0.3214 0.8136 0.0000
vt 0.3427 0.7812 0.0000
vt 0.3696 0.7402 0.0000
vt 0.4081 0.6818 0.0000
vt 0.4503 0.6185 0.0000
vt 0.4716 0.5869 0.0000
vt 0.4790 0.5767 0.0000
vt 0.4901 0.5594 0.0000
vt 0.5162 0.5150 0.0000
vt 0.5829 0.3954 0.0000
vt 0.6034 0.3760 0.0000
vt 0.6190 0.3680 0.0000
vt 0.6279 0.3645 0.0000
vt 0.1208 0.9500 0.0000
vt 0.1350 0.8542 0.0000
vt 0.1351 0.8535 0.0000
vt 0.3267 0.3332 0.0000
vt 0.1951 0.7494 0.0000
vt 0.2126 0.7321 0.0000
vt 0.2164 0.7290 0.0000
vt 0.2438 0.7014 0.0000
vt 0.2779 0.6663 0.0000
vt 0.3268 0.6173 0.0000
vt 0.3809 0.5649 0.0000
vt 0.4079 0.5394 0.0000
vt 0.4172 0.5322 0.0000
vt 0.4311 0.5185 0.0000
vt 0.4639 0.4794 0.0000
vt 0.5397 0.3626 0.0000
vt 0.5540 0.3394 0.0000
vt 0.5625 0.3270 0.0000
vt 0.5686 0.3189 0.0000
vt 0.0568 0.9117 0.0000
vt 0.1346 0.8540 0.0000
vt 0.1352 0.8536 0.0000
vt 0.4205 0.3593 0.0000
vt 0.4612 0.3907 0.0000
vt 0.7622 0.5113 0.0000
vt 0.8133 0.5171 0.0000
vt 0.7091 0.5049 0.0000
vt 0.6543 0.4972 0.0000
vt 0.5985 0.4836 0.0000
vt 0.5488 0.4549 0.0000
vt 0.5039 0.4226 0.0000
vt 0.4326 0.2626 0.0000
vt 0.5058 0.2779 0.0000
vt 0.8077 0.3990 0.0000
vt 0.8713 0.4386 0.0000
vt 0.7342 0.3821 0.0000
vt 0.6587 0.3752 0.0000
vt 0.6170 0.4376 0.0000
vt 0.6300 0.3637 0.0000
vt 0.5706 0.3165 0.0000
# 186 texture coords

o Line001
g Line001
s 1
f 19/25/19 20/26/20 21/27/21 
f 21/28/21 20/29/20 22/30/22 23/31/23 
f 23/31/23 22/30/22 24/32/24 25/33/25 
f 25/33/25 24/32/24 26/34/26 27/35/27 
f 27/35/27 26/34/26 28/36/28 29/37/29 
f 29/37/29 28/36/28 30/38/30 31/39/31 
f 31/39/31 30/38/30 32/40/32 33/41/33 
f 33/41/33 32/40/32 34/42/34 35/43/35 
f 35/43/35 34/42/34 36/44/36 37/45/37 
f 37/45/37 36/44/36 38/46/38 39/47/39 
f 39/47/39 38/46/38 40/48/40 41/49/41 
f 42/50/42 43/51/43 44/52/44 45/53/45 
f 45/53/45 44/52/44 46/54/46 47/55/47 
f 47/55/47 46/54/46 48/56/48 49/57/49 
f 50/58/50 51/59/51 52/60/52 53/61/53 
f 53/61/53 52/60/52 54/62/54 55/63/55 
f 19/25/19 56/64/56 20/26/20 
f 20/65/20 56/66/56 57/67/57 22/68/22 
f 22/68/22 57/67/57 58/69/58 24/70/24 
f 24/70/24 58/69/58 59/71/59 26/72/26 
f 26/72/26 59/71/59 60/73/60 28/74/28 
f 28/74/28 60/73/60 61/75/61 30/76/30 
f 30/76/30 61/75/61 62/77/62 32/78/32 
f 32/78/32 62/77/62 63/79/63 34/80/34 
f 34/80/34 63/79/63 64/81/64 36/82/36 
f 36/82/36 64/81/64 65/83/65 38/84/38 
f 38/84/38 65/83/65 66/85/66 40/86/40 
f 43/87/43 67/88/67 68/89/68 44/90/44 
f 44/90/44 68/89/68 69/91/69 46/92/46 
f 46/92/46 69/91/69 70/93/70 48/94/48 
f 51/59/51 71/95/71 72/96/72 52/60/52 
f 52/60/52 72/96/72 54/97/73 54/62/54 
f 19/25/19 73/98/74 56/64/56 
f 56/66/56 73/99/74 74/100/75 57/67/57 
f 57/67/57 74/100/75 75/101/76 58/69/58 
f 58/69/58 75/101/76 76/102/77 59/71/59 
f 59/71/59 76/102/77 77/103/78 60/73/60 
f 60/73/60 77/103/78 78/104/79 61/75/61 
f 61/75/61 78/104/79 79/105/80 62/77/62 
f 62/77/62 79/105/80 80/106/81 63/79/63 
f 63/79/63 80/106/81 81/107/82 64/81/64 
f 64/81/64 81/107/82 82/108/83 65/83/65 
f 65/83/65 82/108/83 83/109/84 66/85/66 
f 67/88/67 84/110/85 85/111/86 68/89/68 
f 68/89/68 85/111/86 86/112/87 69/91/69 
f 69/91/69 86/112/87 87/113/88 70/93/70 
f 71/95/71 88/114/89 89/115/90 72/96/72 
f 72/96/72 89/115/90 54/116/91 54/97/73 
f 19/25/19 90/117/92 73/98/74 
f 73/99/74 90/118/92 91/119/93 74/100/75 
f 74/100/75 91/119/93 92/120/94 75/101/76 
f 75/101/76 92/120/94 93/121/95 76/102/77 
f 76/102/77 93/121/95 94/122/96 77/103/78 
f 77/103/78 94/122/96 95/123/97 78/104/79 
f 78/104/79 95/123/97 96/124/98 79/105/80 
f 79/105/80 96/124/98 97/125/99 80/106/81 
f 80/106/81 97/125/99 98/126/100 81/107/82 
f 81/107/82 98/126/100 99/127/101 82/108/83 
f 82/108/83 99/127/101 100/128/102 83/109/84 
f 84/110/85 101/129/103 102/130/104 85/111/86 
f 85/111/86 102/130/104 103/131/105 86/112/87 
f 86/112/87 103/131/105 104/132/106 87/113/88 
f 88/114/89 105/133/107 106/134/108 89/115/90 
f 89/115/90 106/134/108 54/135/109 54/116/91 
f 19/25/19 107/136/110 90/117/92 
f 90/118/92 107/137/110 108/138/111 91/119/93 
f 91/119/93 108/138/111 109/139/112 92/120/94 
f 92/120/94 109/139/112 110/140/113 93/121/95 
f 93/121/95 110/140/113 111/141/114 94/122/96 
f 94/122/96 111/141/114 112/142/115 95/123/97 
f 95/123/97 112/142/115 113/143/116 96/124/98 
f 96/124/98 113/143/116 114/144/117 97/125/99 
f 97/125/99 114/144/117 115/145/118 98/126/100 
f 98/126/100 115/145/118 116/146/119 99/127/101 
f 99/127/101 116/146/119 117/147/120 100/128/102 
f 101/129/103 118/148/121 119/149/122 102/130/104 
f 102/130/104 119/149/122 120/150/123 103/131/105 
f 103/131/105 120/150/123 121/151/124 104/132/106 
f 105/133/107 122/152/125 123/153/126 106/134/108 
f 106/134/108 123/153/126 124/154/127 54/135/109 
f 19/25/19 125/155/128 107/136/110 
f 107/137/110 125/156/128 126/157/129 108/138/111 
f 108/138/111 126/157/129 127/158/130 109/139/112 
f 109/139/112 127/158/130 128/159/131 110/140/113 
f 110/140/113 128/159/131 129/160/132 111/141/114 
f 111/141/114 129/160/132 130/161/133 112/142/115 
f 112/142/115 130/161/133 131/162/134 113/143/116 
f 113/143/116 131/162/134 132/163/135 114/144/117 
f 114/144/117 132/163/135 133/164/136 115/145/118 
f 115/145/118 133/164/136 134/165/137 116/146/119 
f 116/146/119 134/165/137 135/166/138 117/147/120 
f 118/148/121 136/167/139 137/168/140 119/149/122 
f 119/149/122 137/168/140 138/169/141 120/150/123 
f 120/150/123 138/169/141 139/170/142 121/151/124 
f 122/152/125 140/171/143 141/172/144 123/153/126 
f 123/153/126 141/172/144 124/173/145 124/154/127 
f 19/25/19 142/174/146 125/155/128 
f 125/156/128 142/175/146 143/176/147 126/157/129 
f 126/157/129 143/176/147 144/177/148 127/158/130 
f 127/158/130 144/177/148 145/178/149 128/159/131 
f 128/159/131 145/178/149 146/179/150 129/160/132 
f 129/160/132 146/179/150 147/180/151 130/161/133 
f 130/161/133 147/180/151 148/181/152 131/162/134 
f 131/162/134 148/181/152 149/182/153 132/163/135 
f 132/163/135 149/182/153 150/183/154 133/164/136 
f 133/164/136 150/183/154 151/184/155 134/165/137 
f 134/165/137 151/184/155 152/185/156 135/166/138 
f 136/167/139 153/186/157 154/187/158 137/168/140 
f 137/168/140 154/187/158 155/188/159 138/169/141 
f 138/169/141 155/188/159 156/189/160 139/170/142 
f 140/171/143 157/190/161 158/191/162 141/172/144 
f 141/172/144 158/191/162 124/192/163 124/173/145 
f 19/25/19 21/27/21 142/174/146 
f 142/175/146 21/28/21 23/31/23 143/176/147 
f 143/176/147 23/31/23 25/33/25 144/177/148 
f 144/177/148 25/33/25 27/35/27 145/178/149 
f 145/178/149 27/35/27 29/37/29 146/179/150 
f 146/179/150 29/37/29 31/39/31 147/180/151 
f 147/180/151 31/39/31 33/41/33 148/181/152 
f 148/181/152 33/41/33 35/43/35 149/182/153 
f 149/182/153 35/43/35 37/45/37 150/183/154 
f 150/183/154 37/45/37 39/47/39 151/184/155 
f 151/184/155 39/47/39 41/49/41 152/185/156 
f 153/186/157 42/50/42 45/53/45 154/187/158 
f 154/187/158 45/53/45 47/55/47 155/188/159 
f 155/188/159 47/55/47 49/57/49 156/189/160 
f 157/190/161 50/58/50 53/61/53 158/191/162 
f 158/191/162 53/61/53 55/63/55 124/192/163 
f 40/48/40 159/193/164 160/194/165 41/49/41 
f 66/85/66 161/195/166 159/196/164 40/86/40 
f 83/109/84 162/197/167 161/195/166 66/85/66 
f 100/128/102 163/198/168 162/197/167 83/109/84 
f 117/147/120 164/199/169 163/198/168 100/128/102 
f 135/166/138 165/200/170 164/199/169 117/147/120 
f 152/185/156 166/201/171 165/200/170 135/166/138 
f 41/49/41 160/194/165 166/201/171 152/185/156 
f 49/57/49 48/56/48 51/202/51 50/203/50 
f 48/94/48 70/93/70 71/204/71 51/205/51 
f 70/93/70 87/113/88 88/206/89 71/204/71 
f 87/113/88 104/132/106 105/207/107 88/206/89 
f 104/132/106 121/151/124 122/208/125 105/207/107 
f 121/151/124 139/170/142 140/209/143 122/208/125 
f 139/170/142 156/189/160 157/210/161 140/209/143 
f 156/189/160 49/57/49 50/203/50 157/210/161 
f 159/193/164 43/51/43 42/50/42 160/194/165 
f 161/195/166 67/88/67 43/87/43 159/196/164 
f 162/197/167 84/110/85 67/88/67 161/195/166 
f 163/198/168 101/129/103 84/110/85 162/197/167 
f 164/199/169 118/148/121 101/129/103 163/198/168 
f 165/200/170 136/167/139 118/148/121 164/199/169 
f 166/201/171 153/186/157 136/167/139 165/200/170 
f 160/194/165 42/50/42 153/186/157 166/201/171 
# 144 polygons - 8 triangles

