# 3ds Max Wavefront OBJ Exporter v0.99 - (c)2007 guruware
# File Created: 06.04.2023 20:43:34

mtllib plane_low.mtl

#
# object Plane001
#

v  -1.0000 0.0000 1.0000
v  1.0000 0.0000 1.0000
v  1.0000 0.0000 -1.0000
v  -1.0000 0.0000 -1.0000
# 4 vertices

vn 0.0000 1.0000 -0.0000
# 1 vertex normals

vt 0.0005 0.0005 0.0000
vt 0.9995 0.0005 0.0000
vt 0.9995 0.9995 0.0000
vt 0.0005 0.9995 0.0000
# 4 texture coords

o Plane001
g Plane001
usemtl wire_225088199
s 1
f 1/1/1 2/2/1 3/3/1 4/4/1 
# 1 polygons

