# 3ds Max Wavefront OBJ Exporter v0.99 - (c)2007 guruware
# File Created: 08.04.2023 18:10:04

mtllib wall36.mtl

#
# object 3
#

v  0.0000 0.0000 -2.0000
v  0.0000 0.0000 -5.0000
v  1.0000 0.0000 -5.0000
v  1.0000 0.0000 -2.0000
v  0.0000 3.3000 -2.0000
v  1.0000 3.3000 -2.0000
v  1.0000 3.3000 -5.0000
v  0.0000 3.3000 -5.0000
v  1.0000 3.0000 -2.0000
v  0.0000 3.0000 -2.0000
v  1.0000 3.0000 -5.0000
v  0.0000 3.0000 -5.0000
v  1.1000 3.0000 -2.0000
v  1.1000 3.0000 -5.0000
v  1.1000 3.3000 -5.0000
v  1.1000 3.3000 -2.0000
v  -0.1000 3.0000 -5.0000
v  -0.1000 3.0000 -2.0000
v  -0.1000 3.3000 -2.0000
v  -0.1000 3.3000 -5.0000
# 20 vertices

vn -0.5774 -0.5774 0.5774
vn -0.5774 -0.5774 -0.5774
vn 0.5774 -0.5774 -0.5774
vn 0.5774 -0.5774 0.5774
vn 0.0000 0.7071 0.7071
vn 0.0000 0.7071 -0.7071
vn 0.3015 -0.3015 0.9045
vn -0.3015 -0.3015 0.9045
vn 0.3015 -0.3015 -0.9045
vn -0.3015 -0.3015 -0.9045
vn 0.5774 0.5774 -0.5774
vn 0.5774 0.5774 0.5774
vn -0.5774 0.5774 0.5774
vn -0.5774 0.5774 -0.5774
# 14 vertex normals

vt 0.0005 0.8904 0.0000
vt 0.2898 0.8837 0.0000
vt 0.2921 0.9802 0.0000
vt 0.0027 0.9869 0.0000
vt 0.5955 0.8934 0.0000
vt 0.5955 0.9899 0.0000
vt 0.3061 0.9899 0.0000
vt 0.3061 0.8934 0.0000
vt 0.8737 0.6691 0.0000
vt 0.9702 0.6689 0.0000
vt 0.9708 0.9583 0.0000
vt 0.8743 0.9585 0.0000
vt 0.5830 0.3396 0.0000
vt 0.8724 0.3395 0.0000
vt 0.8725 0.6289 0.0000
vt 0.5831 0.6290 0.0000
vt 0.7451 0.6690 0.0000
vt 0.8416 0.6689 0.0000
vt 0.8419 0.9583 0.0000
vt 0.7454 0.9584 0.0000
vt 0.5830 0.0007 0.0000
vt 0.8724 0.0005 0.0000
vt 0.8725 0.2899 0.0000
vt 0.5831 0.2901 0.0000
vt 0.9708 0.9872 0.0000
vt 0.8743 0.9874 0.0000
vt 0.5831 0.6387 0.0000
vt 0.8725 0.6385 0.0000
vt 0.8726 0.6675 0.0000
vt 0.5832 0.6676 0.0000
vt 0.8419 0.9872 0.0000
vt 0.7454 0.9873 0.0000
vt 0.5831 0.2997 0.0000
vt 0.8725 0.2996 0.0000
vt 0.8726 0.3285 0.0000
vt 0.5832 0.3287 0.0000
vt 0.7358 0.9873 0.0000
vt 0.7357 0.9584 0.0000
vt 0.5955 0.9995 0.0000
vt 0.3061 0.9995 0.0000
vt 0.9804 0.9583 0.0000
vt 0.9805 0.9872 0.0000
vt 0.8647 0.9875 0.0000
vt 0.8646 0.9585 0.0000
vt 0.3061 0.8837 0.0000
vt 0.5955 0.8837 0.0000
vt 0.8515 0.9583 0.0000
vt 0.8515 0.9872 0.0000
# 48 texture coords

o 3
g 3
usemtl wire_087225198
s 2
f 1/1/1 2/2/2 3/3/3 4/4/4 
s 4
f 5/5/5 6/6/5 7/7/6 8/8/6 
s 8
f 1/9/1 4/10/4 9/11/7 10/12/8 
s 16
f 4/13/4 3/14/3 11/15/9 9/16/7 
s 32
f 3/17/3 2/18/2 12/19/10 11/20/9 
s 64
f 2/21/2 1/22/1 10/23/8 12/24/10 
s off
f 10/12/8 9/11/7 6/25/5 5/26/5 
f 13/27/4 14/28/3 15/29/11 16/30/12 
f 11/20/9 12/19/10 8/31/6 7/32/6 
f 17/33/2 18/34/1 19/35/13 20/36/14 
f 9/16/7 11/15/9 14/28/3 13/27/4 
f 11/20/9 7/32/6 15/37/11 14/38/3 
f 7/7/6 6/6/5 16/39/12 15/40/11 
f 6/25/5 9/11/7 13/41/4 16/42/12 
f 12/24/10 10/23/8 18/34/1 17/33/2 
f 10/12/8 5/26/5 19/43/13 18/44/1 
f 5/5/5 8/8/6 20/45/14 19/46/13 
f 8/31/6 12/19/10 17/47/2 20/48/14 
# 18 polygons

#
# object 6
#

v  0.0000 0.0000 5.0000
v  1.0000 0.0000 5.0000
v  1.0000 3.0000 5.0000
v  0.0000 3.0000 5.0000
v  1.0000 0.0000 -1.0000
v  0.0000 0.0000 -1.0000
v  0.0000 3.0000 -1.0000
v  1.0000 3.0000 -1.0000
v  1.0000 3.3000 5.0000
v  0.0000 3.3000 5.0000
v  0.0000 3.3000 -1.0000
v  1.0000 3.3000 -1.0000
v  1.1000 3.3000 -1.0000
v  1.1000 3.0000 -1.0000
v  1.1000 3.0000 5.0000
v  1.1000 3.3000 5.0000
v  -0.1000 3.3000 5.0000
v  -0.1000 3.0000 5.0000
v  -0.1000 3.0000 -1.0000
v  -0.1000 3.3000 -1.0000
# 20 vertices

vn -0.5774 -0.5774 0.5774
vn 0.5774 -0.5774 0.5774
vn 0.3015 -0.3015 0.9045
vn -0.3015 -0.3015 0.9045
vn 0.5774 -0.5774 -0.5774
vn -0.5774 -0.5774 -0.5774
vn -0.3015 -0.3015 -0.9045
vn 0.3015 -0.3015 -0.9045
vn 0.0000 0.7071 0.7071
vn 0.0000 0.7071 -0.7071
vn 0.5774 0.5774 -0.5774
vn 0.5774 0.5774 0.5774
vn -0.5774 0.5774 0.5774
vn -0.5774 0.5774 -0.5774
# 14 vertex normals

vt 0.8888 0.0005 0.0000
vt 0.9852 0.0020 0.0000
vt 0.9807 0.2914 0.0000
vt 0.8843 0.2899 0.0000
vt 0.8856 0.3347 0.0000
vt 0.9821 0.3352 0.0000
vt 0.9805 0.6246 0.0000
vt 0.8840 0.6241 0.0000
vt 0.9803 0.3203 0.0000
vt 0.8838 0.3188 0.0000
vt 0.9803 0.6536 0.0000
vt 0.8838 0.6530 0.0000
vt 0.8742 0.6530 0.0000
vt 0.8744 0.6240 0.0000
vt 0.9904 0.2915 0.0000
vt 0.9899 0.3204 0.0000
vt 0.8742 0.3187 0.0000
vt 0.8746 0.2897 0.0000
vt 0.9901 0.6247 0.0000
vt 0.9899 0.6536 0.0000
vt 0.0007 0.7618 0.0000
vt 0.0005 0.6653 0.0000
vt 0.5793 0.6641 0.0000
vt 0.5795 0.7606 0.0000
vt 0.5793 0.0005 0.0000
vt 0.5811 0.2899 0.0000
vt 0.0023 0.2935 0.0000
vt 0.0005 0.0041 0.0000
vt 0.5811 0.2995 0.0000
vt 0.0023 0.3031 0.0000
vt 0.5813 0.3285 0.0000
vt 0.0025 0.3321 0.0000
vt 0.0005 0.8801 0.0000
vt 0.0005 0.8705 0.0000
vt 0.5793 0.8705 0.0000
vt 0.5793 0.8801 0.0000
vt 0.0005 0.7740 0.0000
vt 0.5793 0.7740 0.0000
vt 0.0005 0.7644 0.0000
vt 0.5793 0.7644 0.0000
vt 0.0012 0.6638 0.0000
vt 0.0011 0.6349 0.0000
vt 0.5799 0.6337 0.0000
vt 0.5800 0.6627 0.0000
vt 0.0011 0.6253 0.0000
vt 0.5799 0.6241 0.0000
vt 0.0005 0.3358 0.0000
vt 0.5793 0.3347 0.0000
# 48 texture coords

o 6
g 6
usemtl wire_087225198
s 8
f 21/49/15 22/50/16 23/51/17 24/52/18 
s 32
f 25/53/19 26/54/20 27/55/21 28/56/22 
s off
f 24/52/18 23/51/17 29/57/23 30/58/23 
f 28/56/22 27/55/21 31/59/24 32/60/24 
f 28/56/22 32/60/24 33/61/25 34/62/19 
f 29/57/23 23/51/17 35/63/16 36/64/26 
f 24/52/18 30/58/23 37/65/27 38/66/15 
f 31/59/24 27/55/21 39/67/20 40/68/28 
s 2
f 26/69/20 25/70/19 22/71/16 21/72/15 
s 16
f 25/73/19 28/74/22 23/75/17 22/76/16 
s off
f 28/74/22 34/77/19 35/78/16 23/75/17 
f 34/77/19 33/79/25 36/80/26 35/78/16 
f 33/81/25 32/82/24 29/83/23 36/84/26 
s 4
f 32/82/24 31/85/24 30/86/23 29/83/23 
s off
f 31/85/24 40/87/28 37/88/27 30/86/23 
f 40/89/28 39/90/20 38/91/15 37/92/27 
f 39/90/20 27/93/21 24/94/18 38/91/15 
s 64
f 27/93/21 26/95/20 21/96/15 24/94/18 
# 18 polygons

